<?xml version="1.0" encoding="UTF-8" standalone="no"?>
<svg width="23px" height="23px" viewBox="0 0 23 23" version="1.1" xmlns="http://www.w3.org/2000/svg" xmlns:xlink="http://www.w3.org/1999/xlink">
    
    <title>Download 2</title>
    
    <defs></defs>
    <g id="Perldoc" stroke="none" stroke-width="1" fill="none" fill-rule="evenodd">
        <g id="Home" transform="translate(-749.000000, -360.000000)" fill="#FFFFFF">
            <g id="Group-6" transform="translate(426.000000, 244.000000)">
                <g id="btn-action-copy" transform="translate(302.000000, 100.000000)">
                    <g id="Group-7">
                        <path d="M32.1070829,34.9291144 C32.2053045,35.0606487 32.3618059,35.146 32.537,35.146 C32.6289837,35.146 32.7153836,35.1230969 32.7909298,35.0827351 C32.839514,35.0575817 32.8845275,35.0250855 32.924,34.986 L36.535,31.373 C36.744,31.164 36.744,30.822 36.535,30.613 C36.324,30.402 35.984,30.402 35.773,30.613 L33.076,33.31 L33.076,16.539 C33.076,16.242 32.836,16 32.537,16 C32.242,16 32,16.242 32,16.539 L32,33.304 L29.309,30.613 C29.096,30.4 28.754,30.404 28.549,30.613 C28.338,30.822 28.338,31.164 28.549,31.373 L32.1070829,34.9291144 Z M39.771,38.755 L25.312,38.755 C23.021,38.755 21.16,36.894 21.16,34.605 C21.16,34.31 21.402,34.068 21.697,34.068 C21.996,34.068 22.236,34.31 22.236,34.605 C22.236,36.302 23.619,37.679 25.312,37.679 L39.771,37.679 C41.464,37.679 42.843,36.302 42.843,34.605 C42.843,34.31 43.087,34.068 43.38,34.068 C43.679,34.068 43.919,34.31 43.919,34.605 C43.92,36.894 42.056,38.755 39.771,38.755 Z" id="Download-2"></path>
                    </g>
                </g>
            </g>
        </g>
    </g>
</svg>
