<?xml version="1.0" encoding="UTF-8"?>
<svg width="31px" height="27px" viewBox="0 0 31 27" version="1.1" xmlns="http://www.w3.org/2000/svg" xmlns:xlink="http://www.w3.org/1999/xlink">
    
    <title>ic_header_community</title>
    
    <defs></defs>
    <g id="Perlorg" stroke="none" stroke-width="1" fill="none" fill-rule="evenodd">
        <g id="Home" transform="translate(-1125.000000, -87.000000)" fill="#FFFFFF">
            <g id="header">
                <g id="btn-community" transform="translate(1089.000000, 86.000000)">
                    <g id="Group-2">
                        <g transform="translate(0.000000, 1.000000)">
                            <path d="M51.26,18.243 C54.713,18.243 57.522,15.436 57.522,11.983 L57.522,6.26 C57.522,2.807 54.713,0 51.26,0 C47.809,0 45,2.807 45,6.26 L45,11.983 C45,15.437 47.809,18.243 51.26,18.243 L51.26,18.243 Z M46.076,6.261 C46.076,3.404 48.4,1.077 51.26,1.077 C54.121,1.077 56.446,3.403 56.446,6.261 L56.446,11.984 C56.446,14.841 54.122,17.17 51.26,17.17 C48.401,17.17 46.076,14.842 46.076,11.984 L46.076,6.261 L46.076,6.261 Z M37.521,25.753 C37.669,24.159 38.531,19.48 43.49,16.985 C45.174,19.637 48.105,21.264 51.26,21.264 C54.415,21.264 57.346,19.637 59.03,16.985 C63.991,19.479 64.85,24.159 64.999,25.753 L37.521,25.753 L37.521,25.753 Z M59.043,15.798 C58.789,15.681 58.488,15.78 58.35,16.025 C56.912,18.593 54.194,20.189 51.26,20.189 C48.326,20.189 45.608,18.593 44.17,16.025 C44.031,15.781 43.727,15.679 43.477,15.798 C36.498,18.978 36.415,26.218 36.415,26.29 C36.415,26.435 36.472,26.571 36.573,26.671 C36.675,26.773 36.811,26.829 36.954,26.829 L65.567,26.829 C65.71,26.829 65.848,26.772 65.948,26.671 C66.05,26.571 66.104,26.435 66.104,26.29 C66.103,26.218 66.019,18.978 59.043,15.798 L59.043,15.798 Z" id="ic_header_community"></path>
                        </g>
                    </g>
                </g>
            </g>
        </g>
    </g>
</svg>