<?xml version="1.0" encoding="UTF-8"?>
<svg width="55px" height="70px" viewBox="0 0 55 70" version="1.1" xmlns="http://www.w3.org/2000/svg" xmlns:xlink="http://www.w3.org/1999/xlink">
    
    <title>Group 8 Copy 5</title>
    
    <defs></defs>
    <g id="Perlorg" stroke="none" stroke-width="1" fill="none" fill-rule="evenodd">
        <g id="Home" transform="translate(-1117.000000, -883.000000)">
            <g id="calendar" transform="translate(890.000000, 883.000000)">
                <g id="Group-8-Copy-5" transform="translate(227.000000, 0.000000)">
                    <rect id="Rectangle-14" fill="#61C5BA" x="0" y="0" width="55" height="70"></rect>
                    <path d="M13,25 L13,25 L14,24 L14,50 L13,49 L42,49 L41,50 L41,24 L42,25 L13,25 Z M13,24 L42,24 L42,50 L13,50 L13,24 L13,24 Z M13.5,33 L41.5,33 L42,33 L42,32 L41.5,32 L13.5,32 L13,32 L13,33 L13.5,33 L13.5,33 Z M25,37 L28,37 L28,40 L25,40 L25,37 Z M25,42 L28,42 L28,45 L25,45 L25,42 Z M20,42 L23,42 L23,45 L20,45 L20,42 Z M30,37 L33,37 L33,40 L30,40 L30,37 Z M30,42 L33,42 L33,45 L30,45 L30,42 Z M35,37 L38,37 L38,40 L35,40 L35,37 Z M35,42 L38,42 L38,45 L35,45 L35,42 Z M20,21 L23,21 L23,30 L20,30 L20,21 Z M32,21 L35,21 L35,30 L32,30 L32,21 Z" id="ic-calendar" fill="#00456E"></path>
                </g>
            </g>
        </g>
    </g>
</svg>