<?xml version="1.0" encoding="UTF-8"?>
<svg width="26px" height="24px" viewBox="0 0 26 24" version="1.1" xmlns="http://www.w3.org/2000/svg" xmlns:xlink="http://www.w3.org/1999/xlink">
    
    <title>ic_header_learn</title>
    
    <defs></defs>
    <g id="Perlorg" stroke="none" stroke-width="1" fill="none" fill-rule="evenodd">
        <g id="Home" transform="translate(-827.000000, -87.000000)" fill="#FFFFFF">
            <g id="header">
                <g id="btn-learn" transform="translate(789.000000, 86.000000)">
                    <g id="Group-2">
                        <g>
                            <g transform="translate(23.000000, 1.000000)">
                                <path d="M40.2579011,8.32164649 C39.5819011,6.50764649 38.5839011,4.86864649 37.2889011,3.44864649 C36.0019011,2.03864649 34.4609011,0.895646486 32.7069011,0.0526464859 C32.5099011,-0.0413535141 32.2729011,-0.00835351414 32.1109011,0.142646486 L20.8449011,10.4316465 L19.5439011,11.6196465 C19.4739011,11.6766465 19.4129011,11.7506465 19.3759011,11.8426465 C19.3699011,11.8566465 19.3639011,11.8736465 19.3579011,11.8896465 L16.3289011,19.7606465 L15.0359011,23.1216465 C14.9619011,23.3126465 15.0049011,23.5256465 15.1409011,23.6786465 C15.2449011,23.7916465 15.3889011,23.8526465 15.5369011,23.8526465 C15.5859011,23.8526465 15.6369011,23.8466465 15.6849011,23.8316465 L19.1499011,22.8496465 L27.2979011,20.5376465 C27.3489011,20.5236465 27.3999011,20.5006465 27.4459011,20.4716465 C27.4709011,20.4536465 27.4969011,20.4346465 27.5199011,20.4146465 L28.8499011,19.1996465 L40.1139011,8.91064649 C40.2789011,8.75964649 40.3339011,8.52664649 40.2579011,8.32164649 L40.2579011,8.32164649 Z M17.1189011,20.7026465 C17.1399011,20.7166465 17.1659011,20.7236465 17.1869011,20.7356465 C17.4169011,20.8806465 17.6319011,21.0406465 17.8099011,21.2376465 C17.9879011,21.4326465 18.1279011,21.6596465 18.2509011,21.9016465 C18.2649011,21.9226465 18.2709011,21.9506465 18.2799011,21.9736465 L16.4259011,22.5006465 L17.1189011,20.7026465 L17.1189011,20.7026465 Z M26.8889011,19.5326465 L19.3439011,21.6736465 C19.3229011,21.6266465 19.2849011,21.5916465 19.2619011,21.5466465 C19.0879011,21.1676465 18.8789011,20.8126465 18.6059011,20.5116465 C18.3309011,20.2106465 17.9949011,19.9726465 17.6329011,19.7636465 C17.5879011,19.7386465 17.5609011,19.6976465 17.5159011,19.6736465 L20.3319011,12.3576465 L21.1759011,11.5896465 L21.8579011,12.3356465 L27.7289011,18.7656465 L26.8889011,19.5326465 L26.8889011,19.5326465 Z M28.5229011,18.0386465 L26.8179011,16.1716465 L35.7729011,7.99564649 C35.8879011,7.88864649 35.9469011,7.74364649 35.9469011,7.59564649 C35.9469011,7.46864649 35.9019011,7.33764649 35.8059011,7.23464649 C35.6069011,7.01564649 35.2649011,7.00264649 35.0459011,7.20164649 L26.0909011,15.3776465 L25.7409011,14.9926465 L24.3989011,13.5196465 L33.3499011,5.34364649 C33.4669011,5.23664649 33.5259011,5.09164649 33.5259011,4.94364649 C33.5259011,4.81664649 33.4789011,4.68564649 33.3849011,4.58264649 C33.1839011,4.36364649 32.8419011,4.35064649 32.6229011,4.54964649 L23.6699011,12.7276465 L21.9689011,10.8626465 L32.5629011,1.18464649 C34.0569011,1.95064649 35.3789011,2.95464649 36.4929011,4.17864649 C37.6139011,5.40564649 38.4929011,6.81164649 39.1179011,8.36264649 L28.5229011,18.0386465 L28.5229011,18.0386465 Z" id="ic_header_learn"></path>
                            </g>
                        </g>
                    </g>
                </g>
            </g>
        </g>
    </g>
</svg>