<?xml version="1.0" encoding="UTF-8"?>
<svg width="55px" height="70px" viewBox="0 0 55 70" version="1.1" xmlns="http://www.w3.org/2000/svg" xmlns:xlink="http://www.w3.org/1999/xlink">
    
    <title>Group 3</title>
    
    <defs></defs>
    <g id="Perlorg" stroke="none" stroke-width="1" fill="none" fill-rule="evenodd">
        <g id="Home" transform="translate(-477.000000, -883.000000)">
            <g id="cpan" transform="translate(250.000000, 883.000000)">
                <g id="Group-3" transform="translate(227.000000, 0.000000)">
                    <rect id="Rectangle-14" fill="#61C5BA" x="0" y="0" width="55" height="70"></rect>
                    <path d="M21,33 C23.7614237,33 26,30.7614237 26,28 C26,25.2385763 23.7614237,23 21,23 C18.2385763,23 16,25.2385763 16,28 C16,30.7614237 18.2385763,33 21,33 L21,33 Z M21,32 C18.790861,32 17,30.209139 17,28 C17,25.790861 18.790861,24 21,24 C23.209139,24 25,25.790861 25,28 C25,30.209139 23.209139,32 21,32 L21,32 Z M35,33 C37.7614237,33 40,30.7614237 40,28 C40,25.2385763 37.7614237,23 35,23 C32.2385763,23 30,25.2385763 30,28 C30,30.7614237 32.2385763,33 35,33 L35,33 Z M35,32 C32.790861,32 31,30.209139 31,28 C31,25.790861 32.790861,24 35,24 C37.209139,24 39,25.790861 39,28 C39,30.209139 37.209139,32 35,32 L35,32 Z M21,47 C23.7614237,47 26,44.7614237 26,42 C26,39.2385763 23.7614237,37 21,37 C18.2385763,37 16,39.2385763 16,42 C16,44.7614237 18.2385763,47 21,47 L21,47 Z M21,46 C18.790861,46 17,44.209139 17,42 C17,39.790861 18.790861,38 21,38 C23.209139,38 25,39.790861 25,42 C25,44.209139 23.209139,46 21,46 L21,46 Z M35,47 C37.7614237,47 40,44.7614237 40,42 C40,39.2385763 37.7614237,37 35,37 C32.2385763,37 30,39.2385763 30,42 C30,44.7614237 32.2385763,47 35,47 L35,47 Z M35,46 C32.790861,46 31,44.209139 31,42 C31,39.790861 32.790861,38 35,38 C37.209139,38 39,39.790861 39,42 C39,44.209139 37.209139,46 35,46 L35,46 Z" id="Combined-Shape" fill="#00456E"></path>
                </g>
            </g>
        </g>
    </g>
</svg>