<?xml version="1.0" encoding="UTF-8"?>
<svg width="20px" height="27px" viewBox="0 0 20 27" version="1.1" xmlns="http://www.w3.org/2000/svg" xmlns:xlink="http://www.w3.org/1999/xlink">
    
    <title>ic_header_docs</title>
    
    <defs></defs>
    <g id="Perlorg" stroke="none" stroke-width="1" fill="none" fill-rule="evenodd">
        <g id="Home" transform="translate(-927.000000, -87.000000)" fill="#FFFFFF">
            <g id="header">
                <g id="btn-docs" transform="translate(889.000000, 86.000000)">
                    <g id="Group-2">
                        <g transform="translate(26.000000, 1.000000)">
                            <path d="M31.13,7.726 C31.118,7.601 31.081,7.478 30.989,7.386 L23.76,0.159 C23.668,0.065 23.547,0.026 23.42,0.018 C23.402,0.016 23.395,0 23.381,0 L12.537,0 C12.242,0 12,0.242 12,0.537 L12,1.422 L12,1.805 L12,2.881 L12,24.094 L12,25.17 L12,26.438 C12,26.735 12.242,26.977 12.537,26.977 L30.607,26.977 C30.904,26.977 31.144,26.735 31.144,26.438 L31.144,7.766 C31.146,7.752 31.132,7.742 31.13,7.726 L31.13,7.726 Z M23.919,1.838 L29.31,7.229 L25.187,7.229 C24.49,7.229 23.919,6.661 23.919,5.959 L23.919,1.838 L23.919,1.838 Z M30.069,25.902 L13.077,25.902 L13.077,24.634 L13.077,2.345 L13.077,1.077 L22.843,1.077 L22.843,5.958 C22.843,7.251 23.894,8.304 25.187,8.304 L30.07,8.304 L30.07,25.902 L30.069,25.902 Z" id="ic_header_docs"></path>
                        </g>
                    </g>
                </g>
            </g>
        </g>
    </g>
</svg>