<?xml version="1.0" encoding="UTF-8" standalone="no"?>
<svg width="55px" height="70px" viewBox="0 0 55 70" version="1.1" xmlns="http://www.w3.org/2000/svg" xmlns:xlink="http://www.w3.org/1999/xlink">
    <!-- Generator: Sketch 3.7.1 (28215) - http://www.bohemiancoding.com/sketch -->
    <title>Group 8 Copy</title>
    <desc>Created with Sketch.</desc>
    <defs></defs>
    <g id="Perldoc" stroke="none" stroke-width="1" fill="none" fill-rule="evenodd">
        <g id="Home" transform="translate(-797.000000, -546.000000)">
            <g id="community" transform="translate(570.000000, 546.000000)">
                <g id="Group-8-Copy" transform="translate(227.000000, 0.000000)">
                    <rect id="Rectangle-14" fill="#61C5BA" x="0" y="0" width="55" height="70"></rect>
                    <path d="M32.6041829,50.344 L21.7171829,50.344 C21.4221829,50.344 21.1801829,50.102 21.1801829,49.805 L21.1801829,45.112 C16.7661829,42.848 14.0261829,38.434 14.0001829,33.512 C13.9751829,28.834 16.5141829,24.453 20.6251829,22.082 C20.7931829,21.984 20.9941829,21.984 21.1621829,22.082 C21.3281829,22.178 21.4321829,22.357 21.4321829,22.547 L21.4321829,31.375 L27.1611829,34.678 L32.8861829,31.375 L32.8861829,22.539 C32.8861829,22.348 32.9901829,22.17 33.1561829,22.072 C33.3241829,21.976 33.5251829,21.976 33.6931829,22.072 C37.8101829,24.449 40.2891829,28.67 40.3221829,33.363 C40.3471829,38.287 37.5391829,42.863 33.1421829,45.121 L33.1421829,49.805 C33.1411829,50.102 32.9001829,50.344 32.6041829,50.344 L32.6041829,50.344 Z M22.2561829,49.268 L32.0671829,49.268 L32.0671829,44.788 C32.0671829,44.581 32.1841829,44.392 32.3721829,44.302 C36.5691829,42.284 39.2681829,37.993 39.2451829,33.37 C39.2161829,29.382 37.2591829,25.761 33.9621829,23.513 L33.9621829,31.687 C33.9621829,31.878 33.8581829,32.056 33.6921829,32.154 L27.4301829,35.767 C27.2621829,35.865 27.0611829,35.865 26.8911829,35.767 L20.6251829,32.154 C20.4591829,32.056 20.3551829,31.879 20.3551829,31.687 L20.3551829,23.525 C17.0561829,25.785 15.0541829,29.529 15.0761829,33.509 C15.0991829,38.126 17.7341829,42.259 21.9511829,44.294 C22.1391829,44.384 22.2561829,44.573 22.2561829,44.778 L22.2561829,49.268 L22.2561829,49.268 Z" id="Wrench-3" fill="#00456E"></path>
                </g>
            </g>
        </g>
    </g>
</svg>