<?xml version="1.0" encoding="UTF-8" standalone="no"?>
<svg width="55px" height="70px" viewBox="0 0 55 70" version="1.1" xmlns="http://www.w3.org/2000/svg" xmlns:xlink="http://www.w3.org/1999/xlink">
    <!-- Generator: Sketch 3.7.1 (28215) - http://www.bohemiancoding.com/sketch -->
    <title>Group 8</title>
    <desc>Created with Sketch.</desc>
    <defs></defs>
    <g id="Perldoc" stroke="none" stroke-width="1" fill="none" fill-rule="evenodd">
        <g id="Home" transform="translate(-477.000000, -546.000000)">
            <g id="learning" transform="translate(250.000000, 546.000000)">
                <g id="Group-8" transform="translate(227.000000, 0.000000)">
                    <rect id="Rectangle-14" fill="#61C5BA" x="0" y="0" width="55" height="70"></rect>
                    <path d="M40.2579011,32.3216465 C39.5819011,30.5076465 38.5839011,28.8686465 37.2889011,27.4486465 C36.0019011,26.0386465 34.4609011,24.8956465 32.7069011,24.0526465 C32.5099011,23.9586465 32.2729011,23.9916465 32.1109011,24.1426465 L20.8449011,34.4316465 L19.5439011,35.6196465 C19.4739011,35.6766465 19.4129011,35.7506465 19.3759011,35.8426465 C19.3699011,35.8566465 19.3639011,35.8736465 19.3579011,35.8896465 L16.3289011,43.7606465 L15.0359011,47.1216465 C14.9619011,47.3126465 15.0049011,47.5256465 15.1409011,47.6786465 C15.2449011,47.7916465 15.3889011,47.8526465 15.5369011,47.8526465 C15.5859011,47.8526465 15.6369011,47.8466465 15.6849011,47.8316465 L19.1499011,46.8496465 L27.2979011,44.5376465 C27.3489011,44.5236465 27.3999011,44.5006465 27.4459011,44.4716465 C27.4709011,44.4536465 27.4969011,44.4346465 27.5199011,44.4146465 L28.8499011,43.1996465 L40.1139011,32.9106465 C40.2789011,32.7596465 40.3339011,32.5266465 40.2579011,32.3216465 L40.2579011,32.3216465 Z M17.1189011,44.7026465 C17.1399011,44.7166465 17.1659011,44.7236465 17.1869011,44.7356465 C17.4169011,44.8806465 17.6319011,45.0406465 17.8099011,45.2376465 C17.9879011,45.4326465 18.1279011,45.6596465 18.2509011,45.9016465 C18.2649011,45.9226465 18.2709011,45.9506465 18.2799011,45.9736465 L16.4259011,46.5006465 L17.1189011,44.7026465 L17.1189011,44.7026465 Z M26.8889011,43.5326465 L19.3439011,45.6736465 C19.3229011,45.6266465 19.2849011,45.5916465 19.2619011,45.5466465 C19.0879011,45.1676465 18.8789011,44.8126465 18.6059011,44.5116465 C18.3309011,44.2106465 17.9949011,43.9726465 17.6329011,43.7636465 C17.5879011,43.7386465 17.5609011,43.6976465 17.5159011,43.6736465 L20.3319011,36.3576465 L21.1759011,35.5896465 L21.8579011,36.3356465 L27.7289011,42.7656465 L26.8889011,43.5326465 L26.8889011,43.5326465 Z M28.5229011,42.0386465 L26.8179011,40.1716465 L35.7729011,31.9956465 C35.8879011,31.8886465 35.9469011,31.7436465 35.9469011,31.5956465 C35.9469011,31.4686465 35.9019011,31.3376465 35.8059011,31.2346465 C35.6069011,31.0156465 35.2649011,31.0026465 35.0459011,31.2016465 L26.0909011,39.3776465 L25.7409011,38.9926465 L24.3989011,37.5196465 L33.3499011,29.3436465 C33.4669011,29.2366465 33.5259011,29.0916465 33.5259011,28.9436465 C33.5259011,28.8166465 33.4789011,28.6856465 33.3849011,28.5826465 C33.1839011,28.3636465 32.8419011,28.3506465 32.6229011,28.5496465 L23.6699011,36.7276465 L21.9689011,34.8626465 L32.5629011,25.1846465 C34.0569011,25.9506465 35.3789011,26.9546465 36.4929011,28.1786465 C37.6139011,29.4056465 38.4929011,30.8116465 39.1179011,32.3626465 L28.5229011,42.0386465 L28.5229011,42.0386465 Z" id="Pencil-2" fill="#00456E"></path>
                </g>
            </g>
        </g>
    </g>
</svg>