<?xml version="1.0" encoding="UTF-8" standalone="no"?>
<svg width="55px" height="70px" viewBox="0 0 55 70" version="1.1" xmlns="http://www.w3.org/2000/svg" xmlns:xlink="http://www.w3.org/1999/xlink">
    
    <title>Group 8 Copy 2</title>
    
    <defs></defs>
    <g id="Perldoc" stroke="none" stroke-width="1" fill="none" fill-rule="evenodd">
        <g id="Home" transform="translate(-1117.000000, -546.000000)">
            <g id="docs" transform="translate(890.000000, 546.000000)">
                <g id="Group-8-Copy-2" transform="translate(227.000000, 0.000000)">
                    <rect id="Rectangle-14" fill="#61C5BA" x="0" y="0" width="55" height="70"></rect>
                    <path d="M38.0363831,33.0742135 L41.9913831,29.1212135 C42.1183831,28.9982135 42.1773831,28.8222135 42.1553831,28.6522135 C42.1303831,28.4742135 42.0283831,28.3222135 41.8783831,28.2342135 L31.2123831,22.0742135 C30.9913831,21.9472135 30.7143831,21.9862135 30.5343831,22.1682135 L26.5793831,26.1192135 L22.6243831,22.1682135 C22.4423831,21.9862135 22.1653831,21.9472135 21.9443831,22.0742135 L11.2803831,28.2342135 C11.1263831,28.3222135 11.0243831,28.4742135 11.0053831,28.6522135 C10.9823831,28.8222135 11.0383831,28.9982135 11.1613831,29.1212135 L15.1183831,33.0742135 L11.1613831,37.0312135 C11.0383831,37.1542135 10.9813831,37.3302135 11.0053831,37.5002135 C11.0253831,37.6722135 11.1263831,37.8262135 11.2803831,37.9142135 L15.3483831,40.2662135 L15.3483831,45.3872135 C15.3483831,45.5902135 15.4573831,45.7742135 15.6293831,45.8752135 L26.2973831,52.0352135 C26.3833831,52.0882135 26.4813831,52.1092135 26.5783831,52.1092135 C26.6743831,52.1092135 26.7713831,52.0882135 26.8593831,52.0352135 L37.5233831,45.8752135 C37.6953831,45.7732135 37.8043831,45.5902135 37.8043831,45.3872135 L37.8043831,40.2662135 L41.8763831,37.9142135 C42.0263831,37.8262135 42.1283831,37.6722135 42.1533831,37.5002135 C42.1743831,37.3242135 42.1163831,37.1542135 41.9893831,37.0312135 L38.0363831,33.0742135 L38.0363831,33.0742135 Z M36.1143831,33.0742135 L26.5793831,38.5822135 L17.0403831,33.0742135 L24.1923831,28.9452135 L26.5793831,27.5702135 L35.2043831,32.5472135 L36.1143831,33.0742135 L36.1143831,33.0742135 Z M31.0243831,23.2662135 L40.6783831,28.8462135 L37.1493831,32.3712135 L36.5713831,32.0372135 L27.4933831,26.7972135 L31.0243831,23.2662135 L31.0243831,23.2662135 Z M22.1333831,23.2662135 L25.6643831,26.7972135 L16.0063831,32.3712135 L12.4753831,28.8462135 L22.1333831,23.2662135 L22.1333831,23.2662135 Z M16.0063831,33.7772135 L25.6603831,39.3552135 L22.1313831,42.8802135 L16.1923831,39.4522135 L16.1903831,39.4522135 L12.4753831,37.3062135 L16.0063831,33.7772135 L16.0063831,33.7772135 Z M16.4733831,40.9162135 L21.9423831,44.0722135 C22.0303831,44.1252135 22.1283831,44.1482135 22.2233831,44.1482135 C22.2353831,44.1482135 22.2433831,44.1342135 22.2563831,44.1342135 C22.3873831,44.1302135 22.5203831,44.0852135 22.6213831,43.9862135 L26.0163831,40.5912135 L26.0163831,50.5752135 L16.4733831,45.0612135 L16.4733831,40.9162135 L16.4733831,40.9162135 Z M36.6783831,45.0632135 L27.1413831,50.5712135 L27.1413831,40.5922135 L30.5323831,43.9872135 C30.6323831,44.0872135 30.7613831,44.1262135 30.8953831,44.1352135 C30.9073831,44.1352135 30.9183831,44.1492135 30.9283831,44.1492135 C31.0263831,44.1492135 31.1213831,44.1262135 31.2093831,44.0732135 L36.6783831,40.9172135 L36.6783831,45.0632135 L36.6783831,45.0632135 Z M31.0223831,42.8812135 L27.4933831,39.3562135 L37.1493831,33.7782135 L40.6783831,37.3072135 L31.0223831,42.8812135 L31.0223831,42.8812135 Z" id="Box-open-2" fill="#00456E"></path>
                </g>
            </g>
        </g>
    </g>
</svg>