<?xml version="1.0" encoding="UTF-8"?>
<svg width="33px" height="32px" viewBox="0 0 33 32" version="1.1" xmlns="http://www.w3.org/2000/svg" xmlns:xlink="http://www.w3.org/1999/xlink">
    
    <title>ic_header_about</title>

    <defs></defs>
    <g id="Perlorg" stroke="none" stroke-width="1" fill="none" fill-rule="evenodd">
        <g id="Home" transform="translate(-592.000000, -84.000000)" fill="#F0F0F0">
            <g id="header">
                <g id="btn-about" transform="translate(559.000000, 84.000000)">
                    <g id="ic_header_about">
                        <g transform="translate(33.000000, 0.000000)">
                            <path d="M26.0663867,10.3160058 C26.0663867,9.29020299 25.2425968,8.45612139 24.2232818,8.45612139 C23.2039668,8.45612139 22.3801768,9.29020299 22.3801768,10.3160058 C22.3801768,11.3418086 23.2039668,12.1758902 24.2232818,12.1758902 C25.2425968,12.1758902 26.0663867,11.3418086 26.0663867,10.3160058 L26.0663867,10.3160058 Z" id="Stroke-1"></path>
                            <path d="M6.88630829,10.3160058 C6.88630829,11.3418086 7.71009828,12.1758902 8.72941326,12.1758902 C9.74872824,12.1758902 10.5725182,11.3418086 10.5725182,10.3160058 C10.5725182,9.29020299 9.74872824,8.45612139 8.72941326,8.45612139 C7.71009828,8.45612139 6.88630829,9.29020299 6.88630829,10.3160058 L6.88630829,10.3160058 Z" id="Stroke-3"></path>
                            <path d="M10.5986191,22.4183918 L10.5725182,22.5207734 L10.5892218,22.6255635 C10.6131295,22.7755488 10.6651133,23.0257703 10.7516598,23.3437009 C10.8953573,23.8715768 11.0868307,24.3998187 11.3340211,24.89633 C12.4089459,27.0554445 14.1617377,27.9382606 16.5869983,26.7173072 L16.2449272,26.7173049 C18.6677688,27.9370794 20.4456458,27.0579524 21.5676381,24.9041533 C21.8259529,24.408287 22.0287686,23.8805336 22.183422,23.3530838 C22.2765931,23.0353208 22.3336543,22.785211 22.3605381,22.6353123 L22.3801768,22.5258105 L22.3527917,22.4183918 L20.5203245,15.2304795 L19.7214126,15.4831338 L21.5538798,22.6710461 L21.5461335,22.4541255 C21.5253262,22.5701435 21.4762193,22.7853877 21.3939596,23.065937 C21.2562281,23.5356744 21.0758246,24.0051082 20.8492997,24.43995 C19.9245728,26.2150744 18.5821426,26.8788811 16.5870028,25.8744322 L16.4159677,25.7883249 L16.2449317,25.8744299 C14.25207,26.8776999 12.9414361,26.2175823 12.0603287,24.4477732 C11.844162,24.0135765 11.674182,23.5446312 11.5464269,23.0753199 C11.4701018,22.7949382 11.4254078,22.5798056 11.4069283,22.4638743 L11.397531,22.6710461 L13.2299982,15.4831338 L12.4310863,15.2304795 L10.5986191,22.4183918 Z" id="Stroke-5"></path>
                            <path d="M21.2811027,12.9031903 C20.6194893,12.8287814 19.9352809,13.2369011 19.1800557,14.0059959 C18.7383502,14.4558134 18.277635,15.0277466 17.8051712,15.6947037 C17.3956931,16.2727467 16.9997302,16.8901561 16.631493,17.5073568 C16.4104207,17.8778951 16.2471265,18.1670687 16.1564725,18.3347158 L17.0264322,18.3176388 C17.0011117,18.2749113 16.9540044,18.1969049 16.8872191,18.0886264 C16.7766271,17.9093243 16.6506075,17.709824 16.5112531,17.4951163 C16.112919,16.8813902 15.686744,16.2674764 15.248908,15.6928287 C14.805008,15.110222 14.3729177,14.5998277 13.9591629,14.1809138 C13.0999773,13.311015 12.348635,12.8486192 11.6475459,12.9274677 L11.7593071,13.9212028 C12.0532019,13.8881497 12.5919463,14.2197071 13.2476886,14.8836259 C13.6279687,15.2686478 14.033542,15.7477195 14.4534824,16.2988799 C14.8745607,16.8515336 15.2868486,17.4454428 15.6724426,18.0395398 C15.9036554,18.3957766 16.0739796,18.6719223 16.1661446,18.8274479 L16.6161998,19.5869026 L17.0361043,18.810371 C17.120436,18.654416 17.2769292,18.3772859 17.4902621,18.0197196 C17.8460335,17.4234127 18.228329,16.8273144 18.6211751,16.2727502 C19.0652848,15.6458192 19.4942969,15.1132424 19.8935669,14.7066397 C20.449558,14.1404379 20.9072256,13.8674463 21.1693415,13.8969254 L21.2811027,12.9031903 L21.2811027,12.9031903 Z" id="Stroke-7"></path>
                            <path d="M24.6223433,5.08476495 C24.7667421,5.08033576 25.0110917,5.06494913 25.3229438,5.03188294 C25.8427589,4.97676608 26.3632896,4.89019228 26.8536261,4.76429919 C27.8729714,4.50258398 28.6380706,4.10845784 29.049078,3.50731774 C29.626882,2.66238831 30.689572,2.80273535 31.058406,3.62414744 C31.6420848,4.92470505 31.4469078,8.38391432 30.4036488,9.36980404 C30.3387279,9.4308877 30.3387279,9.4308877 30.2736929,9.49107108 C29.6818384,10.0365533 29.0458065,10.5336827 28.4098218,10.9714005 C28.0294635,11.2331829 27.7357981,11.4157156 27.5727985,11.5088787 L28.0690192,12.3770751 C28.1178363,12.3491735 28.2048903,12.2973856 28.3247659,12.2228749 C28.5220167,12.1002703 28.7411523,11.9573183 28.9767712,11.7951531 C29.6493681,11.3322369 30.3219178,10.8065648 30.9514059,10.2263976 C31.0209369,10.1620538 31.0209369,10.1620538 31.0904678,10.0966325 C32.4908823,8.77322741 32.7113924,4.86502818 31.9707,3.21461159 C31.2913008,1.70155489 29.2562733,1.43279345 28.2236055,2.94287533 C27.9840566,3.29323994 27.4097559,3.5890799 26.6049435,3.79571416 C26.1667865,3.90821026 25.6925027,3.98709235 25.2175032,4.03745733 C24.9324666,4.06768023 24.7125694,4.0815271 24.5916844,4.08523505 L24.6223433,5.08476495 L24.6223433,5.08476495 Z" id="Stroke-9"></path>
                            <path d="M16.3896147,0.601283736 C16.2940318,0.622986542 16.1195679,0.665649462 15.8774147,0.729702458 C15.4764412,0.835765638 15.0303013,0.964059668 14.5501523,1.11504568 C13.1777275,1.5466137 11.8048581,2.07431152 10.5199938,2.70293748 C7.2704441,4.29279504 5.1134147,6.25113195 4.59498168,8.65695557 C4.50478174,9.04482409 4.45122335,9.45550911 4.43362737,9.87941782 C4.37468762,11.2993487 4.71234943,12.7997027 5.30889819,14.2879886 C5.50027169,14.7654323 5.70527921,15.2072115 5.9106643,15.603266 C6.03504753,15.8431205 6.13309163,16.0163155 6.19160375,16.1125745 L6.12029741,15.8907298 C6.12696976,15.9785757 6.13991284,16.1423996 6.1588009,16.3713656 C6.19024178,16.7525003 6.2269744,17.1770762 6.26867481,17.6342687 C6.38785186,18.940895 6.52299143,20.2476844 6.67158125,21.4684463 C6.866696,23.0714406 7.07037453,24.4039279 7.28142436,25.3805547 C7.52270671,27.2260634 13.739766,31.4086994 16.5482812,31.4086994 C19.3473686,31.4086994 25.4288196,27.2349407 25.6782741,25.3402074 C25.8822735,24.4038963 26.08593,23.0713735 26.2810469,21.4683245 C26.4296343,20.2475544 26.5647858,18.9407554 26.6839843,17.6341196 C26.7256922,17.1769237 26.762433,16.7523446 26.7938822,16.3712072 C26.8127752,16.1422396 26.8257221,15.9784149 26.8323967,15.8905688 L26.7611018,16.1123837 C26.819613,16.0161175 26.9176561,15.8429092 27.0420384,15.6030368 C27.2474223,15.2069521 27.4524288,14.7651418 27.6438013,14.2876676 C28.2402471,12.7995359 28.577897,11.2993534 28.5190958,9.87958797 C28.5015288,9.45543159 28.4479625,9.04451546 28.3559561,8.64858778 C27.8395437,6.25191218 25.691858,4.29392592 22.4577642,2.70430409 C21.178028,2.0752881 19.8106499,1.54727816 18.4437142,1.11546384 C17.9654835,0.964390972 17.521123,0.836023676 17.1217438,0.729899764 C16.8805405,0.665806658 16.7067489,0.623114543 16.6115144,0.601392574 L16.3896147,0.601283736 L16.3896147,0.601283736 Z M16.6110362,1.57646193 L16.3891364,1.57635309 C16.4731794,1.59552241 16.6355333,1.63540485 16.8649335,1.69636157 C17.2498936,1.79865404 17.6795111,1.92276237 18.1424874,2.06901637 C19.4647149,2.4867074 20.7864999,2.99711168 22.0166493,3.6017547 C25.0022248,5.06922485 26.9430155,6.83859055 27.3801537,8.86709394 C27.4593843,9.20832981 27.5048976,9.55746941 27.5199523,9.92096864 C27.5720354,11.1785229 27.2638952,12.547593 26.7155814,13.9156354 C26.5368912,14.3614674 26.3454019,14.774147 26.15429,15.1427078 C26.0407749,15.3616228 25.9537866,15.5153009 25.9065656,15.592992 L25.8443464,15.6953589 L25.8352707,15.814807 C25.8287551,15.9005616 25.8159779,16.0622383 25.7972691,16.2889727 C25.7660487,16.6673387 25.7295549,17.0890633 25.6881195,17.5432713 C25.5697658,18.840647 25.4356058,20.1378594 25.288373,21.3475 C25.09664,22.9227478 24.8970256,24.2288232 24.6938276,25.1693554 C24.5103716,26.5499664 18.8879345,30.4086994 16.5482812,30.4086994 C14.1966896,30.4086994 8.44050077,26.5361221 8.26586525,25.209677 C8.05561742,24.2288223 7.8559838,22.9227972 7.66425481,21.3476191 C7.51702048,20.1379935 7.38287289,18.8407964 7.26454098,17.543436 C7.22311326,17.0892332 7.18662774,16.6675135 7.15541563,16.289152 C7.1367119,16.0624204 7.12393863,15.9007459 7.11742524,15.8149928 L7.10835122,15.6955272 L7.0461189,15.593148 C6.99889882,15.5154657 6.91191155,15.3618026 6.79839732,15.1429073 C6.60728664,14.7743789 6.4157984,14.361733 6.23710917,13.9159343 C5.68870843,12.5477694 5.38056235,11.1785645 5.43276698,9.92089099 C5.44784636,9.55761033 5.49335236,9.20867094 5.57078484,8.87545846 C6.0096763,6.83905986 7.95926327,5.06905704 10.9594691,3.60119213 C12.1948646,2.99676903 13.5222737,2.48654505 14.8501273,2.06899276 C15.3150757,1.92278666 15.7465263,1.79871677 16.1331341,1.6964535 C16.3635295,1.63551062 16.5266005,1.59563369 16.6110362,1.57646193 L16.6110362,1.57646193 Z" id="Stroke-11"></path>
                            <path d="M16.2844729,5.02153215 C13.3942986,5.02153215 11.203495,8.63171977 11.203495,13.0336819 C11.203495,16.8241945 13.0558515,19.4577283 16.2763255,21.435775 L16.5482201,21.6027753 L16.8201205,21.4357834 C19.9520603,19.5122526 21.7492685,16.8477835 21.7492685,13.0251348 C21.7492685,8.65682017 19.4551451,5 16.5482298,5 L16.2415679,5.02328021 L16.2844729,5.02153215 Z M16.3273779,5.9676368 L16.5911348,5.94610466 C18.7643027,5.94785272 20.7492685,9.11187737 20.7492685,13.0251348 C20.7492685,16.4981634 19.1428141,18.8798286 16.2763392,20.6403199 L16.8201342,20.6403282 C13.8613453,18.8230111 12.203495,16.4660108 12.203495,13.0336819 C12.203495,9.08593068 14.0947374,5.96938487 16.2844729,5.96938487 L16.3273779,5.9676368 Z" id="Stroke-13"></path>
                            <path d="M5.34234734,11.4285835 C5.17908297,11.3418676 4.88324492,11.1678096 4.49945534,10.9127254 C3.85699755,10.4857184 3.21435953,9.98995374 2.6162557,9.43272317 C2.58272786,9.40141319 2.58272786,9.40141319 2.54921753,9.36982139 C1.50582303,8.38392097 1.31059099,4.92476533 1.89432876,3.62407627 C2.2615297,2.80616838 3.32390164,2.67174938 3.90364312,3.51951196 C4.30960304,4.11326955 5.04938094,4.5086882 6.02728719,4.77414152 C6.5065114,4.90422726 7.01505263,4.99434924 7.52286555,5.05243999 C7.82755285,5.08729439 8.06641182,5.10390002 8.20787041,5.10897352 L8.24371302,4.10961607 C8.12673169,4.10542046 7.91332082,4.090584 7.63651833,4.05891946 C7.1751816,4.00614531 6.71457317,3.92451781 6.2892577,3.80906564 C5.52026924,3.6003232 4.96871924,3.30551423 4.72911556,2.95506954 C3.69634297,1.44483441 1.66092578,1.70237014 0.982022316,3.21456808 C0.241276063,4.86510467 0.461850191,8.77327584 1.86239854,10.0966499 C1.89848664,10.1306718 1.89848664,10.1306718 1.9345913,10.1643882 C2.57565582,10.7616436 3.26069816,11.2901211 3.94592074,11.7455515 C4.18611081,11.9051929 4.40958141,12.0445417 4.6108516,12.1629602 C4.73346169,12.2350985 4.82276504,12.2849155 4.87326923,12.3117402 L5.34234734,11.4285835 L5.34234734,11.4285835 Z" id="Stroke-15"></path>
                            <polygon id="Stroke-17" points="15.9743779 21.0283642 15.9743779 27.2711387 16.9743779 27.2711387 16.9743779 21.0283642"></polygon>
                        </g>
                    </g>
                </g>
            </g>
        </g>
    </g>
</svg>
