<?xml version="1.0" encoding="UTF-8"?>
<svg width="24px" height="24px" viewBox="0 0 24 24" version="1.1" xmlns="http://www.w3.org/2000/svg" xmlns:xlink="http://www.w3.org/1999/xlink">
    
    <title>ic_header_cpan</title>
    
    <defs></defs>
    <g id="Perlorg" stroke="none" stroke-width="1" fill="none" fill-rule="evenodd">
        <g id="Home" transform="translate(-1017.000000, -87.000000)" fill="#F8FAFC">
            <g id="header">
                <g id="btn-cpan" transform="translate(979.000000, 86.000000)">
                    <g id="Group-2">
                        <g transform="translate(28.000000, 1.000000)">
                            <path d="M15,10 C17.7614237,10 20,7.76142375 20,5 C20,2.23857625 17.7614237,0 15,0 C12.2385763,0 10,2.23857625 10,5 C10,7.76142375 12.2385763,10 15,10 L15,10 Z M15,9 C12.790861,9 11,7.209139 11,5 C11,2.790861 12.790861,1 15,1 C17.209139,1 19,2.790861 19,5 C19,7.209139 17.209139,9 15,9 L15,9 Z M29,10 C31.7614237,10 34,7.76142375 34,5 C34,2.23857625 31.7614237,0 29,0 C26.2385763,0 24,2.23857625 24,5 C24,7.76142375 26.2385763,10 29,10 L29,10 Z M29,9 C26.790861,9 25,7.209139 25,5 C25,2.790861 26.790861,1 29,1 C31.209139,1 33,2.790861 33,5 C33,7.209139 31.209139,9 29,9 L29,9 Z M15,24 C17.7614237,24 20,21.7614237 20,19 C20,16.2385763 17.7614237,14 15,14 C12.2385763,14 10,16.2385763 10,19 C10,21.7614237 12.2385763,24 15,24 L15,24 Z M15,23 C12.790861,23 11,21.209139 11,19 C11,16.790861 12.790861,15 15,15 C17.209139,15 19,16.790861 19,19 C19,21.209139 17.209139,23 15,23 L15,23 Z M29,24 C31.7614237,24 34,21.7614237 34,19 C34,16.2385763 31.7614237,14 29,14 C26.2385763,14 24,16.2385763 24,19 C24,21.7614237 26.2385763,24 29,24 L29,24 Z M29,23 C26.790861,23 25,21.209139 25,19 C25,16.790861 26.790861,15 29,15 C31.209139,15 33,16.790861 33,19 C33,21.209139 31.209139,23 29,23 L29,23 Z" id="ic_header_cpan"></path>
                        </g>
                    </g>
                </g>
            </g>
        </g>
    </g>
</svg>