<?xml version="1.0" encoding="UTF-8"?>
<svg width="23px" height="23px" viewBox="0 0 23 23" version="1.1" xmlns="http://www.w3.org/2000/svg" xmlns:xlink="http://www.w3.org/1999/xlink">
    
    <title>ic_header_download</title>
    
    <defs></defs>
    <g id="Perlorg" stroke="none" stroke-width="1" fill="none" fill-rule="evenodd">
        <g id="Home" transform="translate(-715.000000, -91.000000)" fill="#FFFFFF">
            <g id="header">
                <g id="btn-download" transform="translate(676.000000, 63.000000)">
                    <g id="btn-doaload">
                        <g id="btn-download" transform="translate(2.000000, 0.000000)">
                            <path d="M48.1070829,46.9291144 C48.2053045,47.0606487 48.3618059,47.146 48.537,47.146 C48.6289837,47.146 48.7153836,47.1230969 48.7909298,47.0827351 C48.839514,47.0575817 48.8845275,47.0250855 48.924,46.986 L52.535,43.373 C52.744,43.164 52.744,42.822 52.535,42.613 C52.324,42.402 51.984,42.402 51.773,42.613 L49.076,45.31 L49.076,28.539 C49.076,28.242 48.836,28 48.537,28 C48.242,28 48,28.242 48,28.539 L48,45.304 L45.309,42.613 C45.096,42.4 44.754,42.404 44.549,42.613 C44.338,42.822 44.338,43.164 44.549,43.373 L48.1070829,46.9291144 Z M55.771,50.755 L41.312,50.755 C39.021,50.755 37.16,48.894 37.16,46.605 C37.16,46.31 37.402,46.068 37.697,46.068 C37.996,46.068 38.236,46.31 38.236,46.605 C38.236,48.302 39.619,49.679 41.312,49.679 L55.771,49.679 C57.464,49.679 58.843,48.302 58.843,46.605 C58.843,46.31 59.087,46.068 59.38,46.068 C59.679,46.068 59.919,46.31 59.919,46.605 C59.92,48.894 58.056,50.755 55.771,50.755 Z" id="ic_header_download"></path>
                        </g>
                    </g>
                </g>
            </g>
        </g>
    </g>
</svg>