<?xml version="1.0" encoding="UTF-8"?>
<svg width="55px" height="70px" viewBox="0 0 55 70" version="1.1" xmlns="http://www.w3.org/2000/svg" xmlns:xlink="http://www.w3.org/1999/xlink">
    
    <title>Group 8 Copy</title>
    
    <defs></defs>
    <g id="Perlorg" stroke="none" stroke-width="1" fill="none" fill-rule="evenodd">
        <g id="Home" transform="translate(-797.000000, -642.000000)">
            <g id="community" transform="translate(570.000000, 642.000000)">
                <g id="Group-8-Copy" transform="translate(227.000000, 0.000000)">
                    <rect id="Rectangle-14" fill="#61C5BA" x="0" y="0" width="55" height="70"></rect>
                    <path d="M27.845,40.243 C31.298,40.243 34.107,37.436 34.107,33.983 L34.107,28.26 C34.107,24.807 31.298,22 27.845,22 C24.394,22 21.585,24.807 21.585,28.26 L21.585,33.983 C21.585,37.437 24.394,40.243 27.845,40.243 L27.845,40.243 Z M22.661,28.261 C22.661,25.404 24.985,23.077 27.845,23.077 C30.706,23.077 33.031,25.403 33.031,28.261 L33.031,33.984 C33.031,36.841 30.707,39.17 27.845,39.17 C24.986,39.17 22.661,36.842 22.661,33.984 L22.661,28.261 L22.661,28.261 Z M14.106,47.753 C14.254,46.159 15.116,41.48 20.075,38.985 C21.759,41.637 24.69,43.264 27.845,43.264 C31,43.264 33.931,41.637 35.615,38.985 C40.576,41.479 41.435,46.159 41.584,47.753 L14.106,47.753 L14.106,47.753 Z M35.628,37.798 C35.374,37.681 35.073,37.78 34.935,38.025 C33.497,40.593 30.779,42.189 27.845,42.189 C24.911,42.189 22.193,40.593 20.755,38.025 C20.616,37.781 20.312,37.679 20.062,37.798 C13.083,40.978 13,48.218 13,48.29 C13,48.435 13.057,48.571 13.158,48.671 C13.26,48.773 13.396,48.829 13.539,48.829 L42.152,48.829 C42.295,48.829 42.433,48.772 42.533,48.671 C42.635,48.571 42.689,48.435 42.689,48.29 C42.688,48.218 42.604,40.978 35.628,37.798 L35.628,37.798 Z" id="User-2" fill="#00456E"></path>
                </g>
            </g>
        </g>
    </g>
</svg>