<?xml version="1.0" encoding="UTF-8"?>
<svg width="55px" height="70px" viewBox="0 0 55 70" version="1.1" xmlns="http://www.w3.org/2000/svg" xmlns:xlink="http://www.w3.org/1999/xlink">
    
    <title>Group 8 Copy 2</title>
    
    <defs></defs>
    <g id="Perlorg" stroke="none" stroke-width="1" fill="none" fill-rule="evenodd">
        <g id="Home" transform="translate(-1117.000000, -642.000000)">
            <g id="docs" transform="translate(890.000000, 642.000000)">
                <g id="Group-8-Copy-2" transform="translate(227.000000, 0.000000)">
                    <rect id="Rectangle-14" fill="#61C5BA" x="0" y="0" width="55" height="70"></rect>
                    <path d="M37.13,29.726 C37.118,29.601 37.081,29.478 36.989,29.386 L29.76,22.159 C29.668,22.065 29.547,22.026 29.42,22.018 C29.402,22.016 29.395,22 29.381,22 L18.537,22 C18.242,22 18,22.242 18,22.537 L18,23.422 L18,23.805 L18,24.881 L18,46.094 L18,47.17 L18,48.438 C18,48.735 18.242,48.977 18.537,48.977 L36.607,48.977 C36.904,48.977 37.144,48.735 37.144,48.438 L37.144,29.766 C37.146,29.752 37.132,29.742 37.13,29.726 L37.13,29.726 Z M29.919,23.838 L35.31,29.229 L31.187,29.229 C30.49,29.229 29.919,28.661 29.919,27.959 L29.919,23.838 L29.919,23.838 Z M36.069,47.902 L19.077,47.902 L19.077,46.634 L19.077,24.345 L19.077,23.077 L28.843,23.077 L28.843,27.958 C28.843,29.251 29.894,30.304 31.187,30.304 L36.07,30.304 L36.07,47.902 L36.069,47.902 Z" id="Paper-2" fill="#00456E"></path>
                </g>
            </g>
        </g>
    </g>
</svg>