<?xml version="1.0" encoding="UTF-8"?>
<svg width="55px" height="70px" viewBox="0 0 55 70" version="1.1" xmlns="http://www.w3.org/2000/svg" xmlns:xlink="http://www.w3.org/1999/xlink">
    
    <title>Group 8 Copy 4</title>
    
    <defs></defs>
    <g id="Perlorg" stroke="none" stroke-width="1" fill="none" fill-rule="evenodd">
        <g id="Home" transform="translate(-797.000000, -883.000000)">
            <g id="Group-2" transform="translate(570.000000, 883.000000)">
                <g id="Group-8-Copy-4" transform="translate(227.000000, 0.000000)">
                    <rect id="Rectangle-14" fill="#61C5BA" x="0" y="0" width="55" height="70"></rect>
                    <path d="M26.555,24 C26.248,24 26.002,24.248 26,24.556 L26,28.304 C26,28.611 26.248,28.86 26.555,28.86 C26.862,28.861 27.11,28.611 27.11,28.304 L27.11,24.556 C27.112,24.246 26.86,24 26.555,24 L26.555,24 Z M34.151,40.677 C34.151,44.981 30.745,48.48 26.554,48.48 C22.366,48.479 18.958,44.981 18.959,40.678 L18.958,29.142 C18.959,24.836 22.367,21.335 26.553,21.333 C30.742,21.334 34.15,24.836 34.15,29.142 L34.151,40.677 L34.151,40.677 Z M27.111,20.281 L27.112,18.895 C27.111,18.59 26.862,18.342 26.555,18.343 C26.25,18.343 25.998,18.589 26.001,18.899 L26.002,20.283 C21.461,20.581 17.848,24.417 17.85,29.141 L17.85,40.68 C17.848,45.592 21.752,49.589 26.554,49.589 C31.352,49.589 35.258,45.594 35.259,40.678 L35.26,29.141 C35.258,24.419 31.647,20.583 27.111,20.281 L27.111,20.281 Z" id="Mouse-2" fill="#00456E"></path>
                </g>
            </g>
        </g>
    </g>
</svg>