<?xml version="1.0" encoding="UTF-8"?>
<svg width="195px" height="119px" viewBox="0 0 195 119" version="1.1" xmlns="http://www.w3.org/2000/svg" xmlns:xlink="http://www.w3.org/1999/xlink">
    
    <title>logo</title>
    
    <defs></defs>
    <g id="Perlorg" stroke="none" stroke-width="1" fill="none" fill-rule="evenodd">
        <g id="Home" transform="translate(-249.000000, -51.000000)">
            <g id="header">
                <g id="logo" transform="translate(249.000000, 51.000000)">
                    <g id="Group" transform="translate(1.000000, 0.000000)" fill="#61C5BA">
                        <path d="M5.10761639,113.255576 C5.10761639,113.648955 5.03469646,113.980467 4.88885442,114.250123 C4.74301238,114.519778 4.54644562,114.737085 4.29914825,114.902051 C4.05185087,115.067016 3.76651203,115.187566 3.44312315,115.263704 C3.11973428,115.339842 2.78366853,115.377911 2.43491582,115.377911 L1.62644768,115.377911 L1.62644768,117.919002 L0,117.919002 L0,111.180827 L2.47296138,111.180827 C2.84073696,111.180827 3.18472879,111.217309 3.50494719,111.290275 C3.82516558,111.36324 4.10416356,111.480618 4.3419495,111.642411 C4.57973544,111.804204 4.7667909,112.016753 4.90312151,112.280063 C5.03945211,112.543373 5.10761639,112.868541 5.10761639,113.255576 L5.10761639,113.255576 Z M3.48116871,113.265093 C3.48116871,113.106472 3.4494644,112.976405 3.38605481,112.874888 C3.32264523,112.77337 3.23704358,112.694061 3.12924729,112.636958 C3.02145099,112.579854 2.89938938,112.541786 2.76305877,112.522751 C2.62672817,112.503717 2.48564396,112.4942 2.33980192,112.4942 L1.62644768,112.4942 L1.62644768,114.083572 L2.31126775,114.083572 C2.46345075,114.083572 2.60929061,114.070882 2.74879169,114.045503 C2.88829277,114.020124 3.01352482,113.975711 3.12449159,113.912262 C3.23545836,113.848814 3.32264523,113.764746 3.38605481,113.660057 C3.4494644,113.555367 3.48116871,113.423714 3.48116871,113.265093 L3.48116871,113.265093 Z M12.9069558,117.919002 L11.4517131,115.24467 L10.9000525,115.24467 L10.9000525,117.919002 L9.30213899,117.919002 L9.30213899,111.180827 L11.8702143,111.180827 C12.1936031,111.180827 12.5090611,111.214137 12.8165976,111.280757 C13.124134,111.347378 13.3999616,111.459997 13.6440885,111.618618 C13.8882154,111.777239 14.0831969,111.986615 14.229039,112.246753 C14.374881,112.506891 14.4478009,112.830472 14.4478009,113.217507 C14.4478009,113.674335 14.3241541,114.058191 14.0768567,114.369088 C13.8295594,114.679984 13.4871527,114.90205 13.0496266,115.035291 L14.8092338,117.919002 L12.9069558,117.919002 Z M12.840376,113.246058 C12.840376,113.087438 12.8070865,112.958957 12.7405064,112.860612 C12.6739264,112.762267 12.5883247,112.68613 12.4836989,112.632199 C12.3790731,112.578268 12.2617671,112.541786 12.1317775,112.522751 C12.0017878,112.503717 11.8765558,112.4942 11.7560776,112.4942 L10.8905411,112.4942 L10.8905411,114.064537 L11.6609637,114.064537 C11.7941238,114.064537 11.9304524,114.053434 12.0699535,114.031227 C12.2094545,114.00902 12.3362718,113.969366 12.4504091,113.912262 C12.5645463,113.855159 12.658074,113.772677 12.7309951,113.664815 C12.8039161,113.556953 12.840376,113.417369 12.840376,113.246058 L12.840376,113.246058 Z M25.8424457,114.521363 C25.8424457,115.054328 25.7505032,115.541287 25.5666154,115.982253 C25.3827276,116.423218 25.1275079,116.80073 24.8009485,117.114799 C24.4743892,117.428868 24.0860113,117.671554 23.6358032,117.842864 C23.1855952,118.014175 22.6973487,118.099829 22.1710492,118.099829 C21.6447497,118.099829 21.1580884,118.014175 20.7110508,117.842864 C20.2640133,117.671554 19.8772206,117.428868 19.5506613,117.114799 C19.2241019,116.80073 18.9688822,116.423218 18.7849944,115.982253 C18.6011066,115.541287 18.5091641,115.054328 18.5091641,114.521363 C18.5091641,113.982052 18.6011066,113.495094 18.7849944,113.060473 C18.9688822,112.625852 19.2241019,112.256271 19.5506613,111.95172 C19.8772206,111.647168 20.2640133,111.412413 20.7110508,111.247447 C21.1580884,111.082482 21.6447497,111 22.1710492,111 C22.6973487,111 23.1855952,111.082482 23.6358032,111.247447 C24.0860113,111.412413 24.4743892,111.647168 24.8009485,111.95172 C25.1275079,112.256271 25.3827276,112.625852 25.5666154,113.060473 C25.7505032,113.495094 25.8424457,113.982052 25.8424457,114.521363 L25.8424457,114.521363 Z M24.1018614,114.521363 C24.1018614,114.229501 24.0543049,113.956677 23.9591905,113.702884 C23.8640761,113.449091 23.7325032,113.231784 23.5644678,113.050956 C23.3964324,112.870128 23.1935248,112.727372 22.9557389,112.622682 C22.7179529,112.517992 22.4563923,112.465648 22.1710492,112.465648 C21.8857061,112.465648 21.6257307,112.517992 21.3911152,112.622682 C21.1564998,112.727372 20.9535921,112.870128 20.7823863,113.050956 C20.6111804,113.231784 20.4796075,113.449091 20.3876636,113.702884 C20.2957197,113.956677 20.2497484,114.229501 20.2497484,114.521363 C20.2497484,114.825915 20.2973049,115.106669 20.3924193,115.363635 C20.4875337,115.6206 20.6191066,115.84108 20.787142,116.02508 C20.9551774,116.20908 21.1564998,116.353423 21.3911152,116.458112 C21.6257307,116.562802 21.8857061,116.615146 22.1710492,116.615146 C22.4563923,116.615146 22.7163677,116.562802 22.9509832,116.458112 C23.1855986,116.353423 23.3885063,116.20908 23.5597121,116.02508 C23.730918,115.84108 23.8640761,115.6206 23.9591905,115.363635 C24.0543049,115.106669 24.1018614,114.825915 24.1018614,114.521363 L24.1018614,114.521363 Z M36.1147465,117.509763 C35.7850166,117.681073 35.3998092,117.820657 34.9591126,117.928519 C34.518416,118.036381 34.0380956,118.090312 33.518137,118.090312 C32.9791556,118.090312 32.482983,118.004658 32.0296045,117.833347 C31.576226,117.662037 31.1862629,117.420937 30.8597035,117.11004 C30.5331442,116.799144 30.2779244,116.426391 30.0940366,115.99177 C29.9101489,115.557149 29.8182063,115.073363 29.8182063,114.540397 C29.8182063,114.001087 29.9117341,113.512542 30.0987923,113.074749 C30.2858506,112.636956 30.5442408,112.264203 30.8739706,111.956478 C31.2037005,111.648754 31.5904931,111.412413 32.0343602,111.247447 C32.4782273,111.082482 32.9569624,111 33.4705801,111 C34.0032206,111 34.4978079,111.080895 34.9543569,111.242689 C35.4109059,111.404482 35.7818464,111.621789 36.0671895,111.894616 L35.0399594,113.065232 C34.8814355,112.881232 34.672187,112.730544 34.4122077,112.613165 C34.1522284,112.495786 33.8573782,112.437097 33.5276484,112.437097 C33.2423053,112.437097 32.9791595,112.489441 32.738203,112.59413 C32.4972466,112.69882 32.2879981,112.844749 32.1104513,113.031922 C31.9329045,113.219094 31.7949907,113.44116 31.6967059,113.698125 C31.598421,113.955091 31.5492793,114.235845 31.5492793,114.540397 C31.5492793,114.851294 31.5936654,115.136807 31.6824388,115.396945 C31.7712122,115.657083 31.9027851,115.880735 32.0771614,116.067907 C32.2515378,116.25508 32.4671272,116.401009 32.723936,116.505698 C32.9807448,116.610388 33.2740097,116.662732 33.6037395,116.662732 C33.7939683,116.662732 33.9746829,116.648456 34.1458888,116.619905 C34.3170946,116.591353 34.4756162,116.545354 34.6214583,116.481905 L34.6214583,115.254187 L33.3374206,115.254187 L33.3374206,113.940814 L36.1147465,113.940814 L36.1147465,117.509763 Z M44.2660073,117.919002 L42.8107646,115.24467 L42.259104,115.24467 L42.259104,117.919002 L40.6611905,117.919002 L40.6611905,111.180827 L43.2292658,111.180827 C43.5526547,111.180827 43.8681126,111.214137 44.1756491,111.280757 C44.4831856,111.347378 44.7590131,111.459997 45.00314,111.618618 C45.2472669,111.777239 45.4422484,111.986615 45.5880905,112.246753 C45.7339325,112.506891 45.8068524,112.830472 45.8068524,113.217507 C45.8068524,113.674335 45.6832056,114.058191 45.4359082,114.369088 C45.1886109,114.679984 44.8462043,114.90205 44.4086781,115.035291 L46.1682853,117.919002 L44.2660073,117.919002 Z M44.1994276,113.246058 C44.1994276,113.087438 44.166138,112.958957 44.099558,112.860612 C44.0329779,112.762267 43.9473762,112.68613 43.8427504,112.632199 C43.7381246,112.578268 43.6208186,112.541786 43.490829,112.522751 C43.3608394,112.503717 43.2356073,112.4942 43.1151291,112.4942 L42.2495926,112.4942 L42.2495926,114.064537 L43.0200152,114.064537 C43.1531753,114.064537 43.2895039,114.053434 43.429005,114.031227 C43.568506,114.00902 43.6953233,113.969366 43.8094606,113.912262 C43.9235978,113.855159 44.0171255,113.772677 44.0900466,113.664815 C44.1629676,113.556953 44.1994276,113.417369 44.1994276,113.246058 L44.1994276,113.246058 Z M54.7475586,117.919002 L54.2244322,116.596112 L51.6183113,116.596112 L51.1237191,117.919002 L49.3546005,117.919002 L52.1794833,111.180827 L53.7583741,111.180827 L56.5547227,117.919002 L54.7475586,117.919002 Z M52.9403945,112.979577 L52.0843694,115.292256 L53.7773968,115.292256 L52.9403945,112.979577 Z M66.4370565,117.919002 L66.475102,113.150886 L66.4465679,113.150886 L64.6964721,117.919002 L63.5551053,117.919002 L61.8525665,113.150886 L61.8240324,113.150886 L61.8620779,117.919002 L60.3307441,117.919002 L60.3307441,111.180827 L62.6420119,111.180827 L64.1733457,115.501634 L64.2113912,115.501634 L65.6761453,111.180827 L68.0254586,111.180827 L68.0254586,117.919002 L66.4370565,117.919002 Z M78.7352833,117.919002 L78.7733289,113.150886 L78.7447947,113.150886 L76.9946989,117.919002 L75.8533321,117.919002 L74.1507934,113.150886 L74.1222592,113.150886 L74.1603047,117.919002 L72.628971,117.919002 L72.628971,111.180827 L74.9402387,111.180827 L76.4715725,115.501634 L76.5096181,115.501634 L77.9743721,111.180827 L80.3236854,111.180827 L80.3236854,117.919002 L78.7352833,117.919002 Z M84.9271978,117.919002 L84.9271978,111.180827 L86.5631568,111.180827 L86.5631568,117.919002 L84.9271978,117.919002 Z M95.4467947,117.919002 L92.7360485,113.51254 L92.7075144,113.51254 L92.7455599,117.919002 L91.1666692,117.919002 L91.1666692,111.180827 L93.0213902,111.180827 L95.722625,115.577772 L95.7511592,115.577772 L95.7131136,111.180827 L97.2920043,111.180827 L97.2920043,117.919002 L95.4467947,117.919002 Z M107.878181,117.509763 C107.548451,117.681073 107.163244,117.820657 106.722547,117.928519 C106.28185,118.036381 105.80153,118.090312 105.281572,118.090312 C104.74259,118.090312 104.246417,118.004658 103.793039,117.833347 C103.33966,117.662037 102.949697,117.420937 102.623138,117.11004 C102.296579,116.799144 102.041359,116.426391 101.857471,115.99177 C101.673583,115.557149 101.581641,115.073363 101.581641,114.540397 C101.581641,114.001087 101.675169,113.512542 101.862227,113.074749 C102.049285,112.636956 102.307675,112.264203 102.637405,111.956478 C102.967135,111.648754 103.353928,111.412413 103.797795,111.247447 C104.241662,111.082482 104.720397,111 105.234015,111 C105.766655,111 106.261242,111.080895 106.717791,111.242689 C107.17434,111.404482 107.545281,111.621789 107.830624,111.894616 L106.803394,113.065232 C106.64487,112.881232 106.435621,112.730544 106.175642,112.613165 C105.915663,112.495786 105.620813,112.437097 105.291083,112.437097 C105.00574,112.437097 104.742594,112.489441 104.501638,112.59413 C104.260681,112.69882 104.051433,112.844749 103.873886,113.031922 C103.696339,113.219094 103.558425,113.44116 103.46014,113.698125 C103.361855,113.955091 103.312714,114.235845 103.312714,114.540397 C103.312714,114.851294 103.3571,115.136807 103.445873,115.396945 C103.534647,115.657083 103.66622,115.880735 103.840596,116.067907 C104.014972,116.25508 104.230562,116.401009 104.48737,116.505698 C104.744179,116.610388 105.037444,116.662732 105.367174,116.662732 C105.557403,116.662732 105.738117,116.648456 105.909323,116.619905 C106.080529,116.591353 106.239051,116.545354 106.384893,116.481905 L106.384893,115.254187 L105.100855,115.254187 L105.100855,113.940814 L107.878181,113.940814 L107.878181,117.509763 Z M118.017322,117.919002 L118.017322,111.180827 L119.653281,111.180827 L119.653281,116.50094 L122.259402,116.50094 L122.259402,117.919002 L118.017322,117.919002 Z M130.80063,117.919002 L130.277503,116.596112 L127.671382,116.596112 L127.17679,117.919002 L125.407672,117.919002 L128.232554,111.180827 L129.811445,111.180827 L132.607794,117.919002 L130.80063,117.919002 Z M128.993466,112.979577 L128.13744,115.292256 L129.830468,115.292256 L128.993466,112.979577 Z M140.663941,117.919002 L137.953194,113.51254 L137.92466,113.51254 L137.962706,117.919002 L136.383815,117.919002 L136.383815,111.180827 L138.238536,111.180827 L140.939771,115.577772 L140.968305,115.577772 L140.93026,111.180827 L142.50915,111.180827 L142.50915,117.919002 L140.663941,117.919002 Z M153.095327,117.509763 C152.765597,117.681073 152.38039,117.820657 151.939693,117.928519 C151.498996,118.036381 151.018676,118.090312 150.498717,118.090312 C149.959736,118.090312 149.463563,118.004658 149.010185,117.833347 C148.556806,117.662037 148.166843,117.420937 147.840284,117.11004 C147.513725,116.799144 147.258505,116.426391 147.074617,115.99177 C146.890729,115.557149 146.798787,115.073363 146.798787,114.540397 C146.798787,114.001087 146.892314,113.512542 147.079373,113.074749 C147.266431,112.636956 147.524821,112.264203 147.854551,111.956478 C148.184281,111.648754 148.571074,111.412413 149.014941,111.247447 C149.458808,111.082482 149.937543,111 150.45116,111 C150.983801,111 151.478388,111.080895 151.934937,111.242689 C152.391486,111.404482 152.762427,111.621789 153.04777,111.894616 L152.02054,113.065232 C151.862016,112.881232 151.652767,112.730544 151.392788,112.613165 C151.132809,112.495786 150.837959,112.437097 150.508229,112.437097 C150.222886,112.437097 149.95974,112.489441 149.718783,112.59413 C149.477827,112.69882 149.268579,112.844749 149.091032,113.031922 C148.913485,113.219094 148.775571,113.44116 148.677286,113.698125 C148.579001,113.955091 148.52986,114.235845 148.52986,114.540397 C148.52986,114.851294 148.574246,115.136807 148.663019,115.396945 C148.751793,115.657083 148.883365,115.880735 149.057742,116.067907 C149.232118,116.25508 149.447708,116.401009 149.704516,116.505698 C149.961325,116.610388 150.25459,116.662732 150.58432,116.662732 C150.774549,116.662732 150.955263,116.648456 151.126469,116.619905 C151.297675,116.591353 151.456197,116.545354 151.602039,116.481905 L151.602039,115.254187 L150.318001,115.254187 L150.318001,113.940814 L153.095327,113.940814 L153.095327,117.509763 Z M163.348605,115.377911 C163.348605,115.78398 163.280441,116.15356 163.14411,116.486664 C163.007779,116.819768 162.812798,117.105281 162.559159,117.343212 C162.305521,117.581143 161.999575,117.766726 161.64131,117.899968 C161.283046,118.033209 160.885157,118.099829 160.447631,118.099829 C160.003764,118.099829 159.604289,118.033209 159.249196,117.899968 C158.894102,117.766726 158.592911,117.581143 158.345614,117.343212 C158.098316,117.105281 157.90809,116.819768 157.77493,116.486664 C157.64177,116.15356 157.575191,115.78398 157.575191,115.377911 L157.575191,111.180827 L159.192127,111.180827 L159.192127,115.24467 C159.192127,115.42867 159.215906,115.60315 159.263463,115.768116 C159.31102,115.933081 159.38394,116.080596 159.482225,116.210665 C159.58051,116.340734 159.710497,116.443836 159.872192,116.519974 C160.033886,116.596112 160.228868,116.63418 160.457142,116.63418 C160.685417,116.63418 160.880398,116.596112 161.042093,116.519974 C161.203787,116.443836 161.33536,116.340734 161.436815,116.210665 C161.538271,116.080596 161.611191,115.933081 161.655577,115.768116 C161.699964,115.60315 161.722157,115.42867 161.722157,115.24467 L161.722157,111.180827 L163.348605,111.180827 L163.348605,115.377911 Z M172.270288,117.919002 L171.747162,116.596112 L169.141041,116.596112 L168.646449,117.919002 L166.87733,117.919002 L169.702213,111.180827 L171.281104,111.180827 L174.077452,117.919002 L172.270288,117.919002 Z M170.463124,112.979577 L169.607099,115.292256 L171.300126,115.292256 L170.463124,112.979577 Z M183.664933,117.509763 C183.335203,117.681073 182.949996,117.820657 182.509299,117.928519 C182.068603,118.036381 181.588282,118.090312 181.068324,118.090312 C180.529342,118.090312 180.03317,118.004658 179.579791,117.833347 C179.126413,117.662037 178.736449,117.420937 178.40989,117.11004 C178.083331,116.799144 177.828111,116.426391 177.644223,115.99177 C177.460335,115.557149 177.368393,115.073363 177.368393,114.540397 C177.368393,114.001087 177.461921,113.512542 177.648979,113.074749 C177.836037,112.636956 178.094427,112.264203 178.424157,111.956478 C178.753887,111.648754 179.14068,111.412413 179.584547,111.247447 C180.028414,111.082482 180.507149,111 181.020767,111 C181.553407,111 182.047994,111.080895 182.504543,111.242689 C182.961092,111.404482 183.332033,111.621789 183.617376,111.894616 L182.590146,113.065232 C182.431622,112.881232 182.222374,112.730544 181.962394,112.613165 C181.702415,112.495786 181.407565,112.437097 181.077835,112.437097 C180.792492,112.437097 180.529346,112.489441 180.28839,112.59413 C180.047433,112.69882 179.838185,112.844749 179.660638,113.031922 C179.483091,113.219094 179.345177,113.44116 179.246892,113.698125 C179.148608,113.955091 179.099466,114.235845 179.099466,114.540397 C179.099466,114.851294 179.143852,115.136807 179.232625,115.396945 C179.321399,115.657083 179.452972,115.880735 179.627348,116.067907 C179.801724,116.25508 180.017314,116.401009 180.274123,116.505698 C180.530931,116.610388 180.824196,116.662732 181.153926,116.662732 C181.344155,116.662732 181.524869,116.648456 181.696075,116.619905 C181.867281,116.591353 182.025803,116.545354 182.171645,116.481905 L182.171645,115.254187 L180.887607,115.254187 L180.887607,113.940814 L183.664933,113.940814 L183.664933,117.509763 Z M188.211377,117.919002 L188.211377,111.180827 L192.738799,111.180827 L192.738799,112.56082 L189.780756,112.56082 L189.780756,113.826607 L192.577105,113.826607 L192.577105,115.130463 L189.780756,115.130463 L189.780756,116.529491 L192.910004,116.529491 L192.910004,117.919002 L188.211377,117.919002 Z" id="PROGRAMMING-LANGUAGE"></path>
                        <path d="M7.95224958,3.13136729 L7.95224958,15.1849866 L4.28692699,15.1849866 L4.28692699,3.13136729 L0,3.13136729 L0,0 L12.2391766,0 L12.2391766,3.13136729 L7.95224958,3.13136729 Z M25.4214772,15.1849866 L25.4214772,8.83646113 L19.5055179,8.83646113 L19.5055179,15.1849866 L15.8401953,15.1849866 L15.8401953,0 L19.5055179,0 L19.5055179,5.74798928 L25.4214772,5.74798928 L25.4214772,0 L29.0867997,0 L29.0867997,15.1849866 L25.4214772,15.1849866 Z M34.1453737,15.1849866 L34.1453737,0 L44.3482599,0 L44.3482599,3.10991957 L37.6820884,3.10991957 L37.6820884,5.96246649 L43.9838711,5.96246649 L43.9838711,8.90080429 L37.6820884,8.90080429 L37.6820884,12.0536193 L44.7340833,12.0536193 L44.7340833,15.1849866 L34.1453737,15.1849866 Z" id="THE"></path>
                    </g>
                    <path d="M59.49,47.59 C59.49,52.0953559 58.6543417,55.8921512 56.983,58.9805 C55.3116583,62.0688488 53.0590142,64.5576572 50.225,66.447 C47.3909858,68.3363428 44.1210185,69.7169956 40.415,70.589 C36.7089815,71.4610044 32.8576866,71.897 28.861,71.897 L19.596,71.897 L19.596,101 L0.957,101 L0.957,23.828 L29.297,23.828 C33.5116877,23.828 37.453815,24.2458292 41.1235,25.0815 C44.793185,25.9171708 47.9904864,27.2614907 50.7155,29.1145 C53.4405136,30.9675093 55.5841589,33.4018183 57.1465,36.4175 C58.7088411,39.4331817 59.49,43.1573112 59.49,47.59 L59.49,47.59 Z M40.851,47.699 C40.851,45.8823242 40.4876703,44.3926725 39.761,43.23 C39.0343297,42.0673275 38.0533395,41.1590033 36.818,40.505 C35.5826605,39.8509967 34.1838411,39.4150011 32.6215,39.197 C31.0591589,38.9789989 29.4423417,38.87 27.771,38.87 L19.596,38.87 L19.596,57.073 L27.444,57.073 C29.1880087,57.073 30.8593253,56.9276681 32.458,56.637 C34.0566747,56.3463319 35.491827,55.8376703 36.7635,55.111 C38.035173,54.3843297 39.0343297,53.421506 39.761,52.2225 C40.4876703,51.023494 40.851,49.5156757 40.851,47.699 L40.851,47.699 Z M100.153,67.646 C100.153,64.8119858 99.2628423,62.3776768 97.4825,60.343 C95.7021578,58.3083232 93.0316845,57.291 89.471,57.291 C87.7269913,57.291 86.1283406,57.5634973 84.675,58.1085 C83.2216594,58.6535027 81.9500055,59.3983286 80.86,60.343 C79.7699946,61.2876714 78.8980033,62.395827 78.244,63.6675 C77.5899967,64.939173 77.226667,66.2653264 77.154,67.646 L100.153,67.646 Z M116.612,74.513 L116.612,76.693 C116.612,77.4196703 116.575667,78.1099967 116.503,78.764 L77.154,78.764 C77.2993341,80.2900076 77.7534962,81.6706605 78.5165,82.906 C79.2795038,84.1413395 80.260494,85.2131621 81.4595,86.1215 C82.658506,87.0298379 84.0028259,87.7383308 85.4925,88.247 C86.9821741,88.7556692 88.5263254,89.01 90.125,89.01 C92.9590142,89.01 95.3569902,88.4831719 97.319,87.4295 C99.2810098,86.3758281 100.879661,85.0133417 102.115,83.342 L114.541,91.19 C111.997654,94.8960185 108.636854,97.7481567 104.4585,99.7465 C100.280146,101.744843 95.4296943,102.744 89.907,102.744 C85.8376463,102.744 81.9863515,102.108173 78.353,100.8365 C74.7196485,99.564827 71.5405136,97.7118455 68.8155,95.2775 C66.0904864,92.8431545 63.9468412,89.8456845 62.3845,86.285 C60.8221589,82.7243155 60.041,78.6550229 60.041,74.077 C60.041,69.6443112 60.8039924,65.629518 62.33,62.0325 C63.8560076,58.435482 65.9269869,55.3835125 68.543,52.8765 C71.1590131,50.3694875 74.2473155,48.4256736 77.808,47.045 C81.3686845,45.6643264 85.2199793,44.974 89.362,44.974 C93.3586867,44.974 97.0283166,45.6461599 100.371,46.9905 C103.713683,48.3348401 106.583988,50.2786539 108.982,52.822 C111.380012,55.365346 113.25116,58.4536485 114.5955,62.087 C115.93984,65.7203515 116.612,69.8623101 116.612,74.513 L116.612,74.513 Z M163.417,61.324 C162.617663,61.1059989 161.836504,60.960667 161.0735,60.888 C160.310496,60.815333 159.56567,60.779 158.839,60.779 C156.440988,60.779 154.424508,61.2149956 152.7895,62.087 C151.154492,62.9590044 149.846505,64.0126605 148.8655,65.248 C147.884495,66.4833395 147.176002,67.8276594 146.74,69.281 C146.303998,70.7343406 146.086,72.0059945 146.086,73.096 L146.086,101 L128.21,101 L128.21,46.718 L145.432,46.718 L145.432,54.566 L145.65,54.566 C147.030674,51.8046529 148.992654,49.5520087 151.536,47.808 C154.079346,46.0639913 157.022317,45.192 160.365,45.192 C161.09167,45.192 161.800163,45.228333 162.4905,45.301 C163.180837,45.373667 163.743998,45.4826659 164.18,45.628 L163.417,61.324 Z M176.072,101 L176.072,23.828 L194.166,23.828 L194.166,101 L176.072,101 Z" id="Perl" fill="#F8FAFC"></path>
                </g>
            </g>
        </g>
    </g>
</svg>