<?xml version="1.0" encoding="UTF-8"?>
<svg width="103px" height="75px" viewBox="0 0 103 75" version="1.1" xmlns="http://www.w3.org/2000/svg" xmlns:xlink="http://www.w3.org/1999/xlink">
    <defs></defs>
    <g id="_UIKit" stroke="none" stroke-width="1" fill="none" fill-rule="evenodd">
        <g id="Branding" transform="translate(-734.000000, -159.000000)">
            <g id="logo" transform="translate(736.000000, 154.000000)">
                <g id="Group"></g>
            </g>
        </g>
        <g id="logo" fill="#F8FAFC">
            <path d="M32.4904891,29.5659714 C32.4904891,31.7589188 32.0837389,33.6069799 31.2702261,35.11021 C30.4567134,36.6134401 29.3602561,37.8248485 27.9808214,38.7444716 C26.6013867,39.6640947 25.0097552,40.3361169 23.2058791,40.7605584 C21.402003,41.1849998 19.5274147,41.3972173 17.5820581,41.3972173 L13.0723904,41.3972173 L13.0723904,55.5628795 L4,55.5628795 L4,18 L17.7942778,18 C19.8457448,18 21.764545,18.2033751 23.550736,18.6101315 C25.3369271,19.0168879 26.893189,19.6712253 28.2195685,20.5731634 C29.545948,21.4751014 30.5893509,22.6599827 31.3498085,24.1278426 C32.1102661,25.5957026 32.4904891,27.4083941 32.4904891,29.5659714 L32.4904891,29.5659714 Z M23.4180987,29.6190263 C23.4180987,28.7347733 23.2412508,28.0096967 22.8875496,27.4437748 C22.5338484,26.8778529 22.0563589,26.435733 21.4550669,26.1174019 C20.8537749,25.7990709 20.1729103,25.5868533 19.4124527,25.480743 C18.6519951,25.3746326 17.8650218,25.3215782 17.051509,25.3215782 L13.0723904,25.3215782 L13.0723904,34.181749 L16.8923443,34.181749 C17.7412271,34.181749 18.5547277,34.1110098 19.3328703,33.9695293 C20.111013,33.8280488 20.8095624,33.5804617 21.4285394,33.2267605 C22.0475165,32.8730593 22.5338484,32.4044122 22.8875496,31.8208053 C23.2412508,31.2371983 23.4180987,30.5032793 23.4180987,29.6190263 L23.4180987,29.6190263 Z M52.2828928,39.3280757 C52.2828928,37.948641 51.8496153,36.7637598 50.9830474,35.7733964 C50.1164794,34.783033 48.816647,34.2878588 47.0835111,34.2878588 C46.2346282,34.2878588 45.4564973,34.4204947 44.7490949,34.6857706 C44.0416925,34.9510465 43.4227247,35.3135848 42.8921729,35.7733964 C42.3616211,36.233208 41.937186,36.7725942 41.6188549,37.3915713 C41.3005238,38.0105484 41.1236759,38.6560434 41.0883058,39.3280757 L52.2828928,39.3280757 Z M60.2941849,42.6705353 L60.2941849,43.7316336 C60.2941849,44.0853348 60.2765001,44.4213459 60.24113,44.739677 L41.0883058,44.739677 C41.159046,45.4824495 41.3801059,46.1544717 41.7514922,46.7557637 C42.1228785,47.3570558 42.6003679,47.8787572 43.1839749,48.3208837 C43.7675819,48.7630102 44.4219193,49.1078637 45.1470067,49.3554545 C45.8720942,49.6030454 46.623698,49.7268389 47.4018406,49.7268389 C48.7812753,49.7268389 49.9484717,49.4704094 50.903465,48.9575427 C51.8584582,48.4446759 52.6365892,47.7814961 53.2378812,46.9679834 L59.2861415,50.7879372 C58.0481873,52.5918133 56.4123438,53.9800697 54.3785619,54.952748 C52.34478,55.9254263 49.9838599,56.4117582 47.2957308,56.4117582 C45.3150041,56.4117582 43.4404158,56.1022743 41.6719098,55.4832972 C39.9034038,54.8643201 38.3559843,53.9623955 37.0296048,52.7774965 C35.7032253,51.5925975 34.6598224,50.1336019 33.8993648,48.4004661 C33.1389073,46.6673302 32.7586842,44.6866332 32.7586842,42.4583156 C32.7586842,40.3007383 33.1300649,38.3465685 33.8728374,36.5957476 C34.6156099,34.8449266 35.6236432,33.3594039 36.8969675,32.1391347 C38.1702918,30.9188656 39.6734994,29.9727291 41.4066353,29.3006968 C43.1397711,28.6286645 45.0143594,28.2926534 47.0304562,28.2926534 C48.9758128,28.2926534 50.7619771,28.6198221 52.3890026,29.2741694 C54.0160281,29.9285166 55.4131269,30.8746531 56.5803408,32.1126073 C57.7475548,33.3505615 58.6583217,34.853769 59.3126689,36.622275 C59.9670162,38.390781 60.2941849,40.4068476 60.2941849,42.6705353 L60.2941849,42.6705353 Z M83.0761599,36.2508906 C82.6870886,36.1447803 82.3068655,36.0740411 81.9354792,36.038671 C81.564093,36.0033008 81.2015547,35.9856161 80.8478535,35.9856161 C79.6806395,35.9856161 78.6991334,36.1978336 77.9033057,36.622275 C77.107478,37.0467165 76.4708254,37.5595755 75.9933288,38.1608676 C75.5158322,38.7621596 75.1709787,39.416497 74.958758,40.1238994 C74.7465372,40.8313018 74.6404285,41.4502696 74.6404285,41.9808214 L74.6404285,55.5628795 L65.9394225,55.5628795 L65.9394225,29.1415321 L74.322099,29.1415321 L74.322099,32.9614859 L74.4282088,32.9614859 C75.1002411,31.6174214 76.05522,30.5209641 77.2931742,29.6720812 C78.5311284,28.8231983 79.9635968,28.3987633 81.5906223,28.3987633 C81.9443235,28.3987633 82.289177,28.4164481 82.6251931,28.4518182 C82.9612093,28.4871883 83.2353236,28.5402427 83.4475443,28.6109829 L83.0761599,36.2508906 Z M89.2358842,55.5628795 L89.2358842,18 L98.043,18 L98.043,55.5628795 L89.2358842,55.5628795 Z"></path>
        </g>
    </g>
</svg>
