<?xml version="1.0" encoding="UTF-8"?>
<svg width="145px" height="64px" viewBox="0 0 145 64" version="1.1" xmlns="http://www.w3.org/2000/svg" xmlns:xlink="http://www.w3.org/1999/xlink">
    
    <title>Group 3</title>
    
    <defs></defs>
    <g id="_UIKit" stroke="none" stroke-width="1" fill="none" fill-rule="evenodd">
        <g id="Branding" transform="translate(-115.000000, -798.000000)">
            <g id="Group-3" transform="translate(113.000000, 784.000000)">
                <text id="CPAN" font-family="AvenirNext-Bold, Avenir Next" font-size="54" font-weight="bold" fill="#FFFFFF">
                    <tspan x="0" y="54">CPAN</tspan>
                </text>
                <path d="M9.87541961,68.8586196 C9.87541961,69.1222549 9.82269334,69.3694093 9.71723922,69.6000902 C9.61178509,69.8307711 9.47337863,70.03179 9.30201569,70.2031529 C9.13065274,70.3745159 8.92633844,70.509627 8.68906667,70.6084902 C8.45179489,70.7073534 8.20793589,70.7567843 7.95748235,70.7567843 C7.69384705,70.7567843 7.44339726,70.7106488 7.20612549,70.6183765 C6.96885372,70.5261041 6.76124403,70.3942884 6.5832902,70.2229255 C6.40533637,70.0515625 6.26363451,69.853839 6.15818039,69.629749 C6.05272627,69.405659 6,69.1618 6,68.8981647 C6,68.6345294 6.05272627,68.387375 6.15818039,68.1566941 C6.26363451,67.9260132 6.40533637,67.7249943 6.5832902,67.5536314 C6.76124403,67.3822684 6.96885372,67.2471574 7.20612549,67.1482941 C7.44339726,67.0494309 7.69384705,67 7.95748235,67 C8.20793589,67 8.45179489,67.0494309 8.68906667,67.1482941 C8.92633844,67.2471574 9.13065274,67.378973 9.30201569,67.5437451 C9.47337863,67.7085172 9.61178509,67.9062407 9.71723922,68.1369216 C9.82269334,68.3676025 9.87541961,68.6081661 9.87541961,68.8586196 L9.87541961,68.8586196 Z M9.87541961,75.2056078 C9.87541961,75.4692431 9.82269334,75.7163975 9.71723922,75.9470784 C9.61178509,76.1777593 9.47337863,76.3754828 9.30201569,76.5402549 C9.13065274,76.705027 8.92633844,76.8368426 8.68906667,76.9357059 C8.45179489,77.0345691 8.20793589,77.084 7.95748235,77.084 C7.69384705,77.084 7.44339726,77.0378645 7.20612549,76.9455922 C6.96885372,76.8533198 6.76124403,76.7215041 6.5832902,76.5501412 C6.40533637,76.3787782 6.26363451,76.1810547 6.15818039,75.9569647 C6.05272627,75.7328747 6,75.4890157 6,75.2253804 C6,74.9617451 6.05272627,74.7145907 6.15818039,74.4839098 C6.26363451,74.2532289 6.40533637,74.05221 6.5832902,73.8808471 C6.76124403,73.7094841 6.96885372,73.574373 7.20612549,73.4755098 C7.44339726,73.3766466 7.69384705,73.3272157 7.95748235,73.3272157 C8.20793589,73.3272157 8.45179489,73.3766466 8.68906667,73.4755098 C8.92633844,73.574373 9.13065274,73.7061887 9.30201569,73.8709608 C9.47337863,74.0357328 9.61178509,74.2334564 9.71723922,74.4641373 C9.82269334,74.6948181 9.87541961,74.9419725 9.87541961,75.2056078 L9.87541961,75.2056078 Z M17.4057882,68.8586196 C17.4057882,69.1222549 17.353062,69.3694093 17.2476078,69.6000902 C17.1421537,69.8307711 17.0037473,70.03179 16.8323843,70.2031529 C16.6610214,70.3745159 16.4567071,70.509627 16.2194353,70.6084902 C15.9821635,70.7073534 15.7383045,70.7567843 15.487851,70.7567843 C15.2242157,70.7567843 14.9737659,70.7106488 14.7364941,70.6183765 C14.4992223,70.5261041 14.2916127,70.3942884 14.1136588,70.2229255 C13.935705,70.0515625 13.7940031,69.853839 13.688549,69.629749 C13.5830949,69.405659 13.5303686,69.1618 13.5303686,68.8981647 C13.5303686,68.6345294 13.5830949,68.387375 13.688549,68.1566941 C13.7940031,67.9260132 13.935705,67.7249943 14.1136588,67.5536314 C14.2916127,67.3822684 14.4992223,67.2471574 14.7364941,67.1482941 C14.9737659,67.0494309 15.2242157,67 15.487851,67 C15.7383045,67 15.9821635,67.0494309 16.2194353,67.1482941 C16.4567071,67.2471574 16.6610214,67.378973 16.8323843,67.5437451 C17.0037473,67.7085172 17.1421537,67.9062407 17.2476078,68.1369216 C17.353062,68.3676025 17.4057882,68.6081661 17.4057882,68.8586196 L17.4057882,68.8586196 Z M17.4057882,75.2056078 C17.4057882,75.4692431 17.353062,75.7163975 17.2476078,75.9470784 C17.1421537,76.1777593 17.0037473,76.3754828 16.8323843,76.5402549 C16.6610214,76.705027 16.4567071,76.8368426 16.2194353,76.9357059 C15.9821635,77.0345691 15.7383045,77.084 15.487851,77.084 C15.2242157,77.084 14.9737659,77.0378645 14.7364941,76.9455922 C14.4992223,76.8533198 14.2916127,76.7215041 14.1136588,76.5501412 C13.935705,76.3787782 13.7940031,76.1810547 13.688549,75.9569647 C13.5830949,75.7328747 13.5303686,75.4890157 13.5303686,75.2253804 C13.5303686,74.9617451 13.5830949,74.7145907 13.688549,74.4839098 C13.7940031,74.2532289 13.935705,74.05221 14.1136588,73.8808471 C14.2916127,73.7094841 14.4992223,73.574373 14.7364941,73.4755098 C14.9737659,73.3766466 15.2242157,73.3272157 15.487851,73.3272157 C15.7383045,73.3272157 15.9821635,73.3766466 16.2194353,73.4755098 C16.4567071,73.574373 16.6610214,73.7061887 16.8323843,73.8709608 C17.0037473,74.0357328 17.1421537,74.2334564 17.2476078,74.4641373 C17.353062,74.6948181 17.4057882,74.9419725 17.4057882,75.2056078 L17.4057882,75.2056078 Z" id="Shape" fill="#61C5BA"></path>
                <text id="RATINGS" font-family="AvenirNext-Bold, Avenir Next" font-size="14" font-weight="bold" letter-spacing="2.0999999" fill="#61C5BA">
                    <tspan x="22" y="77">RATINGS</tspan>
                </text>
            </g>
        </g>
    </g>
</svg>