<?xml version="1.0" encoding="utf-8"?>
<!-- Generator: Adobe Illustrator 17.0.2, SVG Export Plug-In . SVG Version: 6.00 Build 0)  -->
<!DOCTYPE svg PUBLIC "-//W3C//DTD SVG 1.1//EN" "http://www.w3.org/Graphics/SVG/1.1/DTD/svg11.dtd">
<svg version="1.1" id="Layer_1" xmlns="http://www.w3.org/2000/svg" xmlns:xlink="http://www.w3.org/1999/xlink" x="0px" y="0px"
	 viewBox="0 0 598.004 97.018" enable-background="new 0 0 598.004 97.018"
	 xml:space="preserve">
<g>
	<path fill="#F37121" d="M232.471,30.289L218.27,96.986h-65.569c-7.286,0-12.925-2.906-16.909-8.73
		c-3.925-5.967-5.092-12.766-3.476-20.389c1.617-7.721,5.639-14.469,12.074-20.246c6.442-5.871,13.331-8.803,20.671-8.803h42.553
		l1.566-7.324c0.376-1.988,0.051-3.693-0.963-5.109c-1.014-1.426-2.476-2.131-4.376-2.131h-56.46l5.034-24.223h57.609
		c7.916,0,14.064,2.978,18.478,8.953C232.901,14.898,234.228,22.002,232.471,30.289L232.471,30.289z M164.355,58.203
		c-1.991,0-3.794,0.74-5.4,2.207c-1.658,1.42-2.705,3.102-3.127,5.045c-0.193,0.99-0.193,1.926,0,2.801
		c0.191,0.879,0.534,1.646,1.027,2.312c0.499,0.662,1.126,1.191,1.886,1.592c0.758,0.412,1.607,0.611,2.561,0.611h39.139
		l3.048-14.568H164.355L164.355,58.203z M289.442,48.473l20.962,48.514h-29.346L270.41,68.723l-22.672,28.264H218.41l41.694-48.514
		L239.005,0.031h29.338L279,28.23l22.66-28.199h29.335L289.442,48.473L289.442,48.473z"/>
	<path fill="#F37121" d="M395.503,24.254h-43.76c-2.174,0-4.242,0.832-6.174,2.48c-1.945,1.664-3.152,3.652-3.623,5.967
		l-6.748,31.543c-0.529,2.369-0.162,4.383,1.062,6.037c1.281,1.656,3.01,2.49,5.184,2.49h49.584l-5.182,24.215H334.06
		c-7.91,0-14.068-2.957-18.465-8.873c-4.408-6.062-5.73-13.213-3.984-21.455l7.818-36.369c1.752-8.287,6.08-15.387,12.994-21.305
		c6.871-5.975,14.275-8.953,22.236-8.953h45.963L395.503,24.254L395.503,24.254z"/>
	<path fill="#F37121" d="M497.281,48.047c2.629-12.316-0.07-24.596-7.4-33.656c-7.35-9.082-18.775-14.275-31.363-14.275L414.382,0
		l-20.748,97.018h52.719c23.271-1.598,44.674-19.787,49.578-42.699L497.281,48.047z M473.089,42.879l-1.328,6.295
		c-2.656,12.365-16.074,23.223-28.713,23.246l-18.861,0.045l10.186-47.619h24.145c5.146,0,9.465,1.799,12.121,5.104
		C473.312,33.232,474.164,37.82,473.089,42.879z"/>
	<path fill="#F37121" d="M597.249,30.289l-14.203,66.697h-23.021l13.717-64.285c0.236-1.131,0.254-2.219,0.033-3.262
		c-0.203-1.041-0.6-1.947-1.162-2.693c-0.578-0.764-1.295-1.369-2.174-1.816c-0.875-0.451-1.836-0.676-2.873-0.676H529.49
		l-15.557,72.732h-23.017l20.605-96.955h63.285c7.912,0,14.066,2.978,18.473,8.953C597.693,14.898,599.009,22.002,597.249,30.289
		L597.249,30.289z"/>
	<path fill="#F37121" d="M125.997,11.805c-6.025-7.441-15.33-11.689-25.563-11.689H3.885l11.547,24.74L0,97.018h25.296
		l15.442-72.162h0.885l-0.005-0.01h20.73L46.921,97.018h25.296l15.427-72.172h12.79c2.766,0,5.016,0.898,6.317,2.518
		c1.327,1.619,1.731,4.002,1.149,6.699L94.432,97.018h25.293l12.366-57.785C134.224,29.229,131.997,19.225,125.997,11.805z"/>
</g>
<g>
</g>
<g>
</g>
<g>
</g>
<g>
</g>
<g>
</g>
<g>
</g>
</svg>
