<?xml version="1.0" encoding="UTF-8" standalone="no"?>
<svg
   xmlns:dc="http://purl.org/dc/elements/1.1/"
   xmlns:cc="http://creativecommons.org/ns#"
   xmlns:rdf="http://www.w3.org/1999/02/22-rdf-syntax-ns#"
   xmlns:svg="http://www.w3.org/2000/svg"
   xmlns="http://www.w3.org/2000/svg"
   xmlns:sodipodi="http://sodipodi.sourceforge.net/DTD/sodipodi-0.dtd"
   xmlns:inkscape="http://www.inkscape.org/namespaces/inkscape"
   viewBox="0 0 1735.47 400.9"
   version="1.1"
   id="svg17"
   sodipodi:docname="netactuate.svg"
   inkscape:version="0.92.5 (2060ec1f9f, 2020-04-08)">
  <metadata
     id="metadata21">
    <rdf:RDF>
      <cc:Work
         rdf:about="">
        <dc:format>image/svg+xml</dc:format>
        <dc:type
           rdf:resource="http://purl.org/dc/dcmitype/StillImage" />
      </cc:Work>
    </rdf:RDF>
  </metadata>
  <sodipodi:namedview
     pagecolor="#ffffff"
     bordercolor="#666666"
     borderopacity="1"
     objecttolerance="10"
     gridtolerance="10"
     guidetolerance="10"
     inkscape:pageopacity="0"
     inkscape:pageshadow="2"
     inkscape:window-width="640"
     inkscape:window-height="480"
     id="namedview19"
     showgrid="false"
     inkscape:zoom="0.19994584"
     inkscape:cx="867.73499"
     inkscape:cy="200.45"
     inkscape:window-x="72"
     inkscape:window-y="27"
     inkscape:window-maximized="0"
     inkscape:current-layer="svg17" />
  <defs
     id="defs4">
    <style
       id="style2">.cls-1,.cls-2{fill:#fff;}.cls-2{fill-rule:evenodd;}</style>
  </defs>
  <g
     id="Layer_2"
     data-name="Layer 2"
     style="fill:#666666">
    <path
       class="cls-1"
       d="M1522.93,268.6c0,14.58-12.9,25.27-27,25.41-11.25,0-18.81-7.32-18.93-18.93.09-9.56,5.55-16.33,14.15-20,9.8-4.18,21.29-4.92,31.81-4.6V268.6Zm246.8-10.28c6.69-36.81-13.19-77.9-55.69-78.13-40,.22-64.34,33.83-64.34,70.83.18,41.17,28.76,66.61,67.86,66.78,15.51-.07,31.53-2.43,46-8.38l-4.86-23c-11.67,4.49-24.07,5.95-36.5,5.95-21.49,0-39.71-11.84-40.55-34.07Zm-88.13-23.25c1.55-16.91,12.87-32,30.55-32.17,18.23.15,27.78,15.7,27.3,32.17Zm-101.48-76.23v24.33h-18.93V208h18.93v57.24c0,35.75,22.1,60,63,49l-.54-25.41c-17.58,5.22-30.18-2.19-30-22.71V208h31.63V183.17h-31.63v-33.8l-32.44,9.47Zm-352.62,0v24.33h-18.93V208h18.93v57.24c0,35.75,22.1,60,63,49l-.55-25.41c-17.57,5.22-30.17-2.19-30-22.71V208h31.63V183.17h-31.63v-33.8l-32.44,9.47ZM984.3,238.05l23-78.94,23.78,78.94Zm52.45,25.14,16.49,51.63h35.69l-59.21-182.21H987.28l-58.4,182.21h34.34l15.67-51.63Zm153.82,23a66.23,66.23,0,0,1-26.22,5.13c-24.07,0-40.13-18.3-40.28-42.44-.17-23.41,15.41-42.54,40.28-42.71,8.59.06,17.32,1.42,25.14,5.13l6-24.87c-9.82-4.47-21.46-6.22-32.17-6.22-41.93.17-73.08,28.91-73.27,70.29.18,40.41,27.62,67.14,67.86,67.32,12.25-.1,26.09-1.74,37.31-7l-4.6-24.6Zm236.75-103h-33.25v79.48c0,14.71-12,28-27.3,28.11-20.08-.15-24.7-19.34-24.6-35.95V183.17h-33.26v77.31c.12,28.47,12.21,57.57,46,57.32,17.7-.14,32.22-8,42.17-23v20h31.36l-1.09-131.65Zm128,52.44c0-35-20.83-55.27-54.34-55.42-16.06.11-33.66,3.05-47.58,11.63l6.49,21.62c10.37-6.49,23.26-9.73,35.42-9.73,17,.14,26.76,8.88,26.76,25.14q-24.4-.14-41.9,5.41c-21.08,6.62-36.13,21.28-36.23,44.34,0,22.72,18.79,39,41.36,39.2,14.71-.12,29.65-5.66,38.93-17.58l3,14.6h28.11Z"
       transform="translate(-35.53 -24.76)"
       id="path6"
       style="fill:#666666" />
  </g>
  <g
     id="Layer_3"
     data-name="Layer 3"
     style="fill:#666666">
    <path
       class="cls-1"
       d="M837.32,158.84v24.33H818.4V208h18.92v57.24c0,35.75,22.11,60,63,49l-.54-25.41c-17.57,5.22-30.17-2.19-30-22.71V208h31.63V183.17H869.76v-33.8l-32.44,9.47Zm-276.82,156-1.63-138.07L640,314.82h34.34V132.61H643.49l2.43,134.67L567.79,132.61H530V314.82Zm161.81-79.75c1.55-16.9,12.88-32,30.55-32.17,18.24.15,27.79,15.7,27.31,32.17Zm88.13,23.25c6.69-36.8-13.18-77.9-55.69-78.13-40,.22-64.34,33.83-64.34,70.83.19,41.17,28.77,66.61,67.86,66.78,15.52-.07,31.54-2.43,46-8.38l-4.87-23c-11.66,4.49-24.07,5.95-36.5,5.95-21.48,0-39.71-11.83-40.55-34.07Z"
       transform="translate(-35.53 -24.76)"
       id="path9"
       style="fill:#666666" />
  </g>
  <g
     id="Layer_5"
     data-name="Layer 5"
     style="fill:#666666">
    <path
       class="cls-2"
       d="M426.65,112.73l-5.42,4.1A200.29,200.29,0,0,0,252.59,24.76c-110.69,0-200.45,89.76-200.45,200.45a200.53,200.53,0,0,0,7.66,55.07c75.66-78.16,153.1-148.31,234-203,41.13-24.12,56.6-4.9,23.46,62.24-33.86,85.12-16.56,115.75,92.84,17.34q12.19-11.43,21.77-21.43C491.89,72.85,477,53.37,411,91.63c50.18-15,50.56-6.19,21.67,16.55l0,0C430.73,109.67,428.76,111.19,426.65,112.73Z"
       transform="translate(-35.53 -24.76)"
       id="path12"
       style="fill:#666666" />
    <path
       class="cls-2"
       d="M445.79,171.61c-72.55,75.48-83.64,87.95-147.2,141.75-40.11,29.73-85.66,61-54-33.68,17-87.67-37.49-89.75-149.43,15.8Q83.32,306.54,74,316.26c-60.8,63.06-46.06,82.8,20.24,44.41-50.77,15.14-50.56,6-20.64-17.37,1.56-1.21,3.21-2.47,4.93-3.77l0,.06c2.52-1.82,4.67-3.29,6.46-4.39a200.28,200.28,0,0,0,167.59,90.46C363.28,425.66,453,335.89,453,225.21A200.73,200.73,0,0,0,445.79,171.61Z"
       transform="translate(-35.53 -24.76)"
       id="path14"
       style="fill:#666666" />
  </g>
</svg>
